<svg xmlns="http://www.w3.org/2000/svg" width="70.999" height="83.253" viewBox="0 0 70.999 83.253"><defs><style>.a{fill:#295273;}</style></defs><g transform="translate(-37.681 0)"><g transform="translate(37.681 0)"><g transform="translate(0 0)"><path class="a" d="M107.391,14.376A138.486,138.486,0,0,1,74.071.243a1.75,1.75,0,0,0-1.781,0A134.694,134.694,0,0,1,38.969,14.376a1.751,1.751,0,0,0-1.288,1.689V33.959A51.478,51.478,0,0,0,53.313,71.57c7.677,7.523,16.621,11.683,19.868,11.683s12.19-4.16,19.867-11.683A51.478,51.478,0,0,0,108.68,33.959V16.065A1.751,1.751,0,0,0,107.391,14.376Zm-2.214,19.583A48.044,48.044,0,0,1,90.6,69.068c-7.55,7.4-15.622,10.682-17.416,10.682s-9.867-3.285-17.417-10.682A48.045,48.045,0,0,1,41.184,33.958V17.394a137.921,137.921,0,0,0,32-13.614,142.286,142.286,0,0,0,32,13.613Z" transform="translate(-37.681 0)"/><path class="a" d="M93.37,100.053a1.751,1.751,0,0,0-2.271-.987c-3.128,1.233-6.34,2.367-9.544,3.373a1.751,1.751,0,0,0-1.227,1.671v6.763a1.751,1.751,0,1,0,3.5,0v-5.483c2.875-.93,5.746-1.959,8.553-3.065A1.751,1.751,0,0,0,93.37,100.053Z" transform="translate(-73.393 -82.855)"/><path class="a" d="M171.958,89.718a1.752,1.752,0,0,0,.7-.147l.032-.014a1.751,1.751,0,1,0-1.414-3.2l-.028.012a1.751,1.751,0,0,0,.708,3.353Z" transform="translate(-148.654 -72.188)"/><path class="a" d="M316.5,345.813a1.752,1.752,0,0,0-2.424.508,42.625,42.625,0,0,1-5.033,6.286,44.735,44.735,0,0,1-5.023,4.469,1.751,1.751,0,1,0,2.124,2.785,48.27,48.27,0,0,0,5.417-4.82,46.087,46.087,0,0,0,5.447-6.8A1.751,1.751,0,0,0,316.5,345.813Z" transform="translate(-260.135 -289.344)"/><path class="a" d="M277.538,432.206l-.1.059a1.751,1.751,0,1,0,1.754,3.031l.116-.068a1.751,1.751,0,1,0-1.77-3.022Z" transform="translate(-237.72 -361.727)"/><path class="a" d="M132.54,167.513a5.695,5.695,0,0,0-8.053,8.054l10.341,10.341a5.7,5.7,0,0,0,8.054,0l21.587-21.587a5.695,5.695,0,0,0-8.054-8.053l-17.56,17.56Zm26.351-8.77a2.192,2.192,0,1,1,3.1,3.1L140.4,183.43a2.194,2.194,0,0,1-3.1,0l-10.341-10.34a2.192,2.192,0,0,1,3.1-3.1l7.552,7.552a1.751,1.751,0,0,0,2.476,0Z" transform="translate(-108.977 -129.461)"/></g></g></g></svg>