<svg xmlns="http://www.w3.org/2000/svg" width="107.491" height="95.918" viewBox="0 0 107.491 95.918"><defs><style>.a{fill:rgba(255,255,255,0.25);}.b{fill:#e3e7f2;}.c{fill:#a4c2f7;}.d{fill:#fff;}.e{fill:#7975fc;}</style></defs><path class="a" d="M234.016,811.094c16.72-14.4,13.624-33.433,45.207-10.52s50.161,45.826,23.532,57.592-115.185,34.679-90.414,0S217.3,825.492,234.016,811.094Z" transform="translate(-208.016 -780.622)"/><g transform="translate(21.526)"><g transform="translate(1.154 2.07)"><g transform="translate(0 0.002)"><path class="b" d="M50.714,78.866C86,63.742,81.465,31.42,80.169,24.968a1.115,1.115,0,0,0-1.37-.857c-16.44,3.84-24.548-5.166-27.113-8.873a1.123,1.123,0,0,0-1.861,0c-2.574,3.713-10.709,12.718-27.153,8.873a1.115,1.115,0,0,0-1.37.857c-1.3,6.452-5.835,38.774,29.455,53.9Z" transform="translate(-20.389 -14.744)"/><path class="b" d="M80.43,116.13C54.217,103.9,53.806,80.875,54.892,71.35a36.044,36.044,0,0,0,5.148.382,27.708,27.708,0,0,0,20.405-8.4,27.629,27.629,0,0,0,20.375,8.4,36.028,36.028,0,0,0,5.147-.382C107.055,80.875,106.644,103.9,80.43,116.13Z" transform="translate(-50.084 -56.938)"/></g><g transform="translate(19.648 9.338)"><path class="c" d="M239.832,140.45c-.573-.247-1.134-.494-1.685-.751,33.436-15.422,29.022-46.779,27.752-53.135a1.049,1.049,0,0,0-.18-.416c.708-.112,1.438-.271,2.179-.439a1.123,1.123,0,0,1,1.37.855C270.56,93.023,275.1,125.321,239.832,140.45Z" transform="translate(-229.135 -85.675)"/><path class="c" d="M239.906,169.022c-.573-.27-1.134-.538-1.674-.819,24.26-12.262,24.9-34.133,23.884-43.635a30.834,30.834,0,0,0,3.325-.326C266.535,133.767,266.119,156.8,239.906,169.022Z" transform="translate(-229.209 -119.167)"/><path class="c" d="M192.138,230.523v12.354a6.739,6.739,0,0,1-6.739,6.739h-8.985a6.739,6.739,0,0,1-6.739-6.739V230.523A1.123,1.123,0,0,1,170.8,229.4h20.216A1.123,1.123,0,0,1,192.138,230.523Z" transform="translate(-169.675 -210.483)"/></g><path class="b" d="M188.768,230.523v12.354a6.739,6.739,0,0,1-6.739,6.739h-5.616a6.739,6.739,0,0,1-6.739-6.739V230.523A1.123,1.123,0,0,1,170.8,229.4h16.847A1.123,1.123,0,0,1,188.768,230.523Z" transform="translate(-150.027 -201.145)"/><circle class="c" cx="2.246" cy="2.246" r="2.246" transform="translate(28.634 33.87)"/><g transform="translate(0.005 0)"><path class="d" d="M24.885,86.116c-.712-.124-1.434-.262-2.18-.436a1.115,1.115,0,0,0-1.37.857c-1.276,6.346-5.657,37.7,27.769,53.124l-.021.011c.527.247,1.066.483,1.613.72l.073.034c.582-.249,1.138-.51,1.7-.768C19.048,124.235,23.429,92.885,24.7,86.538A1.1,1.1,0,0,1,24.885,86.116Z" transform="translate(-20.428 -76.312)"/><path class="d" d="M250.836,501.871l-.021-.01-.021.01Z" transform="translate(-220.473 -437.746)"/><path class="d" d="M129.026,16.239c-.289-.367-.541-.712-.752-1.018a1.123,1.123,0,0,0-1.861,0,22.993,22.993,0,0,1-17.827,9.758C119.893,25.628,126.257,19.758,129.026,16.239Z" transform="translate(-96.982 -14.727)"/></g></g><g transform="translate(0)"><path class="d" d="M43.672,139.5a60.792,60.792,0,0,1-12.862-7.413,45.119,45.119,0,0,1-15.717-21.922,50.074,50.074,0,0,1-2.409-13.406,51.4,51.4,0,0,1,1.143-13.612L16,83.724a49.421,49.421,0,0,0-1.071,12.937,47.858,47.858,0,0,0,2.3,12.8,42.849,42.849,0,0,0,14.949,20.841,58.529,58.529,0,0,0,12.381,7.127Z" transform="translate(-12.621 -72.205)"/><g transform="translate(0.001)"><path class="e" d="M183.62,463.662a1.218,1.218,0,0,0-.4.19,1.1,1.1,0,0,0-.449,1.159,1.166,1.166,0,0,0,1.375.852l.2-.073a.82.82,0,0,0,.19-.12.689.689,0,0,0,.16-.139,1.728,1.728,0,0,0,.133-.182,1.235,1.235,0,0,0,.129-.858,1.192,1.192,0,0,0-.189-.394A1.115,1.115,0,0,0,183.62,463.662Z" transform="translate(-160.356 -402.612)"/><path class="e" d="M45.183,1.048a1.2,1.2,0,0,0-.126-.274,1.188,1.188,0,0,0-1.933,0,1.08,1.08,0,0,0-.139.337c-1.116,2-8.841,14.257-27.777,9.276a1.123,1.123,0,0,0-1.371.8A51.4,51.4,0,0,0,12.693,24.8,50.076,50.076,0,0,0,15.1,38.2,45.119,45.119,0,0,0,30.818,60.126c.3.234.62.449.93.674a1.123,1.123,0,0,0,1.326-1.813c-.3-.215-.6-.42-.891-.642A42.85,42.85,0,0,1,17.235,37.5a47.864,47.864,0,0,1-2.3-12.8A50.28,50.28,0,0,1,15.8,12.845C32.742,16.783,41.33,7.429,44.1,3.5c2.774,3.931,11.377,13.3,28.342,9.337,1.321,6.306,5.886,37.447-28.341,52.422-1.18-.55-2.377-1.071-3.529-1.674a1.116,1.116,0,0,0-1.5.468,1.138,1.138,0,0,0,.478,1.532c1.307.681,2.664,1.261,4,1.889a1.1,1.1,0,0,0,.532.156h.045a1.087,1.087,0,0,0,.6-.177c39.5-17.071,29.747-55.875,29.644-56.268a1.123,1.123,0,0,0-1.371-.8C53.842,15.423,46.161,2.832,45.183,1.048Z" transform="translate(-12.63 -0.241)"/><path class="e" d="M196.338,161.884a54.3,54.3,0,0,1-6.669-3.749,1.123,1.123,0,0,0-1.242,1.871,56.973,56.973,0,0,0,7.437,4.139,1.143,1.143,0,0,0,.474.1,1.123,1.123,0,0,0,.474-.1c27.129-12.637,27.367-36.335,26.212-45.936a1.123,1.123,0,0,0-1.277-.977,35.118,35.118,0,0,1-5.019.374,1.123,1.123,0,0,0,0,2.246,36.7,36.7,0,0,0,4.187-.247C221.833,129.27,220.667,150.288,196.338,161.884Z" transform="translate(-164.867 -101.791)"/><path class="e" d="M53.351,67.278A28.734,28.734,0,0,0,73.74,59.372a27.893,27.893,0,0,0,10.911,6.485,1.123,1.123,0,0,0,.682-2.141A25.732,25.732,0,0,1,74.55,57.007a1.159,1.159,0,0,0-1.615,0,26.487,26.487,0,0,1-19.583,8.025,35.088,35.088,0,0,1-4.993-.371,1.092,1.092,0,0,0-.846.225,1.123,1.123,0,0,0-.43.762,49.319,49.319,0,0,0,.639,15.324,40.178,40.178,0,0,0,9.908,19.553A1.123,1.123,0,0,0,59.278,99a37.961,37.961,0,0,1-9.359-18.479,46.987,46.987,0,0,1-.724-13.478A36.589,36.589,0,0,0,53.351,67.278Z" transform="translate(-42.268 -49.22)"/><path class="e" d="M17.472,401.067a1.123,1.123,0,0,0-1.123,1.123v2.246H14.1a1.123,1.123,0,0,0,0,2.246h2.246v2.246a1.123,1.123,0,0,0,2.246,0v-2.246h2.246a1.123,1.123,0,0,0,0-2.246H18.6V402.19A1.123,1.123,0,0,0,17.472,401.067Z" transform="translate(-12.934 -348.28)"/><path class="e" d="M440.1,448.226a1.123,1.123,0,0,0-1.123-1.123h-2.246v-2.246a1.123,1.123,0,0,0-2.246,0V447.1h-2.246a1.123,1.123,0,0,0,0,2.246h2.246V451.6a1.123,1.123,0,1,0,2.246,0V449.35h2.246A1.123,1.123,0,0,0,440.1,448.226Z" transform="translate(-376.034 -385.331)"/><path class="e" d="M417.416,0a1.123,1.123,0,0,0-1.123,1.123V2.246H415.17a1.123,1.123,0,0,0,0,2.246h1.123V5.615a1.123,1.123,0,0,0,2.246,0V4.492h1.123a1.123,1.123,0,0,0,0-2.246h-1.123V1.123A1.123,1.123,0,0,0,417.416,0Z" transform="translate(-361.214 0)"/><path class="e" d="M170,162.816h8.985a7.872,7.872,0,0,0,7.862-7.862V142.6a2.246,2.246,0,0,0-2.246-2.246h-1.123v-3.369a8.985,8.985,0,1,0-17.97,0v3.369h-1.123a2.246,2.246,0,0,0-2.246,2.246v12.354A7.872,7.872,0,0,0,170,162.816Zm-2.246-25.832a6.739,6.739,0,1,1,13.478,0v3.369H167.757Zm-1.123,5.616H184.6v2.246h-2.246a1.123,1.123,0,0,0,0,2.246H184.6v2.246h-2.246a1.123,1.123,0,0,0,0,2.246H184.6v2.246h-2.246a1.123,1.123,0,0,0,0,2.246h2.134a5.626,5.626,0,0,1-5.5,4.492H170a5.626,5.626,0,0,1-5.5-4.492h2.134a1.123,1.123,0,1,0,0-2.246h-2.246v-2.246h2.246a1.123,1.123,0,1,0,0-2.246h-2.246v-2.246h2.246a1.123,1.123,0,0,0,0-2.246h-2.246V142.6Z" transform="translate(-142.463 -111.152)"/><path class="e" d="M232.653,270.973v2.453a1.123,1.123,0,0,0,2.246,0v-2.453a3.369,3.369,0,1,0-2.246,0Zm1.123-4.286a1.123,1.123,0,1,1-1.123,1.123A1.123,1.123,0,0,1,233.776,266.687Z" transform="translate(-201.743 -229.624)"/></g></g></g></svg>