<svg xmlns="http://www.w3.org/2000/svg" xmlns:xlink="http://www.w3.org/1999/xlink" width="171.489" height="171.489" viewBox="0 0 171.489 171.489"><defs><style>.a{fill:url(#a);}</style><linearGradient id="a" x1="-0.12" y1="-0.622" x2="1" y2="1" gradientUnits="objectBoundingBox"><stop offset="0" stop-color="#93a5ff"/><stop offset="1" stop-color="#93a5ff" stop-opacity="0"/></linearGradient></defs><path class="a" d="M166.687,169.088a2.4,2.4,0,1,1,2.4,2.4A2.4,2.4,0,0,1,166.687,169.088Zm-18.521,0a2.4,2.4,0,1,1,2.4,2.4A2.4,2.4,0,0,1,148.166,169.088Zm-18.521,0a2.4,2.4,0,1,1,2.4,2.4A2.4,2.4,0,0,1,129.646,169.088Zm-18.521,0a2.4,2.4,0,1,1,2.4,2.4A2.4,2.4,0,0,1,111.125,169.088Zm-18.521,0a2.4,2.4,0,1,1,2.4,2.4A2.4,2.4,0,0,1,92.6,169.088Zm-18.521,0a2.4,2.4,0,1,1,2.4,2.4A2.4,2.4,0,0,1,74.083,169.088Zm-18.521,0a2.4,2.4,0,1,1,2.4,2.4A2.4,2.4,0,0,1,55.563,169.088Zm-18.521,0a2.4,2.4,0,1,1,2.4,2.4A2.4,2.4,0,0,1,37.042,169.088Zm-18.521,0a2.4,2.4,0,1,1,2.4,2.4A2.4,2.4,0,0,1,18.521,169.088ZM0,169.088a2.4,2.4,0,1,1,2.4,2.4A2.4,2.4,0,0,1,0,169.088Zm166.687-18.521a2.4,2.4,0,1,1,2.4,2.4A2.4,2.4,0,0,1,166.687,150.567Zm-18.521,0a2.4,2.4,0,1,1,2.4,2.4A2.4,2.4,0,0,1,148.166,150.567Zm-18.521,0a2.4,2.4,0,1,1,2.4,2.4A2.4,2.4,0,0,1,129.646,150.567Zm-18.521,0a2.4,2.4,0,1,1,2.4,2.4A2.4,2.4,0,0,1,111.125,150.567Zm-18.521,0a2.4,2.4,0,1,1,2.4,2.4A2.4,2.4,0,0,1,92.6,150.567Zm-18.521,0a2.4,2.4,0,1,1,2.4,2.4A2.4,2.4,0,0,1,74.083,150.567Zm-18.521,0a2.4,2.4,0,1,1,2.4,2.4A2.4,2.4,0,0,1,55.563,150.567Zm-18.521,0a2.4,2.4,0,1,1,2.4,2.4A2.4,2.4,0,0,1,37.042,150.567Zm-18.521,0a2.4,2.4,0,1,1,2.4,2.4A2.4,2.4,0,0,1,18.521,150.567ZM0,150.567a2.4,2.4,0,1,1,2.4,2.4A2.4,2.4,0,0,1,0,150.567Zm166.687-18.521a2.4,2.4,0,1,1,2.4,2.4A2.4,2.4,0,0,1,166.687,132.047Zm-18.521,0a2.4,2.4,0,1,1,2.4,2.4A2.4,2.4,0,0,1,148.166,132.047Zm-18.521,0a2.4,2.4,0,1,1,2.4,2.4A2.4,2.4,0,0,1,129.646,132.047Zm-18.521,0a2.4,2.4,0,1,1,2.4,2.4A2.4,2.4,0,0,1,111.125,132.047Zm-18.521,0a2.4,2.4,0,1,1,2.4,2.4A2.4,2.4,0,0,1,92.6,132.047Zm-18.521,0a2.4,2.4,0,1,1,2.4,2.4A2.4,2.4,0,0,1,74.083,132.047Zm-18.521,0a2.4,2.4,0,1,1,2.4,2.4A2.4,2.4,0,0,1,55.563,132.047Zm-18.521,0a2.4,2.4,0,1,1,2.4,2.4A2.4,2.4,0,0,1,37.042,132.047Zm-18.521,0a2.4,2.4,0,1,1,2.4,2.4A2.4,2.4,0,0,1,18.521,132.047ZM0,132.047a2.4,2.4,0,1,1,2.4,2.4A2.4,2.4,0,0,1,0,132.047Zm166.687-18.521a2.4,2.4,0,1,1,2.4,2.4A2.4,2.4,0,0,1,166.687,113.526Zm-18.521,0a2.4,2.4,0,1,1,2.4,2.4A2.4,2.4,0,0,1,148.166,113.526Zm-18.521,0a2.4,2.4,0,1,1,2.4,2.4A2.4,2.4,0,0,1,129.646,113.526Zm-18.521,0a2.4,2.4,0,1,1,2.4,2.4A2.4,2.4,0,0,1,111.125,113.526Zm-18.521,0a2.4,2.4,0,1,1,2.4,2.4A2.4,2.4,0,0,1,92.6,113.526Zm-18.521,0a2.4,2.4,0,1,1,2.4,2.4A2.4,2.4,0,0,1,74.083,113.526Zm-18.521,0a2.4,2.4,0,1,1,2.4,2.4A2.4,2.4,0,0,1,55.563,113.526Zm-18.521,0a2.4,2.4,0,1,1,2.4,2.4A2.4,2.4,0,0,1,37.042,113.526Zm-18.521,0a2.4,2.4,0,1,1,2.4,2.4A2.4,2.4,0,0,1,18.521,113.526ZM0,113.526a2.4,2.4,0,1,1,2.4,2.4A2.4,2.4,0,0,1,0,113.526ZM166.687,95a2.4,2.4,0,1,1,2.4,2.4A2.4,2.4,0,0,1,166.687,95Zm-18.521,0a2.4,2.4,0,1,1,2.4,2.4A2.4,2.4,0,0,1,148.166,95Zm-18.521,0a2.4,2.4,0,1,1,2.4,2.4A2.4,2.4,0,0,1,129.646,95Zm-18.521,0a2.4,2.4,0,1,1,2.4,2.4A2.4,2.4,0,0,1,111.125,95ZM92.6,95a2.4,2.4,0,1,1,2.4,2.4A2.4,2.4,0,0,1,92.6,95ZM74.083,95a2.4,2.4,0,1,1,2.4,2.4A2.4,2.4,0,0,1,74.083,95ZM55.563,95a2.4,2.4,0,1,1,2.4,2.4A2.4,2.4,0,0,1,55.563,95ZM37.042,95a2.4,2.4,0,1,1,2.4,2.4A2.4,2.4,0,0,1,37.042,95ZM18.521,95a2.4,2.4,0,1,1,2.4,2.4A2.4,2.4,0,0,1,18.521,95ZM0,95a2.4,2.4,0,1,1,2.4,2.4A2.4,2.4,0,0,1,0,95ZM166.687,76.484a2.4,2.4,0,1,1,2.4,2.4A2.4,2.4,0,0,1,166.687,76.484Zm-18.521,0a2.4,2.4,0,1,1,2.4,2.4A2.4,2.4,0,0,1,148.166,76.484Zm-18.521,0a2.4,2.4,0,1,1,2.4,2.4A2.4,2.4,0,0,1,129.646,76.484Zm-18.521,0a2.4,2.4,0,1,1,2.4,2.4A2.4,2.4,0,0,1,111.125,76.484Zm-18.521,0a2.4,2.4,0,1,1,2.4,2.4A2.4,2.4,0,0,1,92.6,76.484Zm-18.521,0a2.4,2.4,0,1,1,2.4,2.4A2.4,2.4,0,0,1,74.083,76.484Zm-18.521,0a2.4,2.4,0,1,1,2.4,2.4A2.4,2.4,0,0,1,55.563,76.484Zm-18.521,0a2.4,2.4,0,1,1,2.4,2.4A2.4,2.4,0,0,1,37.042,76.484Zm-18.521,0a2.4,2.4,0,1,1,2.4,2.4A2.4,2.4,0,0,1,18.521,76.484ZM0,76.484a2.4,2.4,0,1,1,2.4,2.4A2.4,2.4,0,0,1,0,76.484ZM166.687,57.963a2.4,2.4,0,1,1,2.4,2.4A2.4,2.4,0,0,1,166.687,57.963Zm-18.521,0a2.4,2.4,0,1,1,2.4,2.4A2.4,2.4,0,0,1,148.166,57.963Zm-18.521,0a2.4,2.4,0,1,1,2.4,2.4A2.4,2.4,0,0,1,129.646,57.963Zm-18.521,0a2.4,2.4,0,1,1,2.4,2.4A2.4,2.4,0,0,1,111.125,57.963Zm-18.521,0a2.4,2.4,0,1,1,2.4,2.4A2.4,2.4,0,0,1,92.6,57.963Zm-18.521,0a2.4,2.4,0,1,1,2.4,2.4A2.4,2.4,0,0,1,74.083,57.963Zm-18.521,0a2.4,2.4,0,1,1,2.4,2.4A2.4,2.4,0,0,1,55.563,57.963Zm-18.521,0a2.4,2.4,0,1,1,2.4,2.4A2.4,2.4,0,0,1,37.042,57.963Zm-18.521,0a2.4,2.4,0,1,1,2.4,2.4A2.4,2.4,0,0,1,18.521,57.963ZM0,57.963a2.4,2.4,0,1,1,2.4,2.4A2.4,2.4,0,0,1,0,57.963ZM166.687,39.443a2.4,2.4,0,1,1,2.4,2.4A2.4,2.4,0,0,1,166.687,39.443Zm-18.521,0a2.4,2.4,0,1,1,2.4,2.4A2.4,2.4,0,0,1,148.166,39.443Zm-18.521,0a2.4,2.4,0,1,1,2.4,2.4A2.4,2.4,0,0,1,129.646,39.443Zm-18.521,0a2.4,2.4,0,1,1,2.4,2.4A2.4,2.4,0,0,1,111.125,39.443Zm-18.521,0a2.4,2.4,0,1,1,2.4,2.4A2.4,2.4,0,0,1,92.6,39.443Zm-18.521,0a2.4,2.4,0,1,1,2.4,2.4A2.4,2.4,0,0,1,74.083,39.443Zm-18.521,0a2.4,2.4,0,1,1,2.4,2.4A2.4,2.4,0,0,1,55.563,39.443Zm-18.521,0a2.4,2.4,0,1,1,2.4,2.4A2.4,2.4,0,0,1,37.042,39.443Zm-18.521,0a2.4,2.4,0,1,1,2.4,2.4A2.4,2.4,0,0,1,18.521,39.443ZM0,39.443a2.4,2.4,0,1,1,2.4,2.4A2.4,2.4,0,0,1,0,39.443ZM166.687,20.922a2.4,2.4,0,1,1,2.4,2.4A2.4,2.4,0,0,1,166.687,20.922Zm-18.521,0a2.4,2.4,0,1,1,2.4,2.4A2.4,2.4,0,0,1,148.166,20.922Zm-18.521,0a2.4,2.4,0,1,1,2.4,2.4A2.4,2.4,0,0,1,129.646,20.922Zm-18.521,0a2.4,2.4,0,1,1,2.4,2.4A2.4,2.4,0,0,1,111.125,20.922Zm-18.521,0a2.4,2.4,0,1,1,2.4,2.4A2.4,2.4,0,0,1,92.6,20.922Zm-18.521,0a2.4,2.4,0,1,1,2.4,2.4A2.4,2.4,0,0,1,74.083,20.922Zm-18.521,0a2.4,2.4,0,1,1,2.4,2.4A2.4,2.4,0,0,1,55.563,20.922Zm-18.521,0a2.4,2.4,0,1,1,2.4,2.4A2.4,2.4,0,0,1,37.042,20.922Zm-18.521,0a2.4,2.4,0,1,1,2.4,2.4A2.4,2.4,0,0,1,18.521,20.922ZM0,20.922a2.4,2.4,0,1,1,2.4,2.4A2.4,2.4,0,0,1,0,20.922ZM166.687,2.4a2.4,2.4,0,1,1,2.4,2.4A2.4,2.4,0,0,1,166.687,2.4Zm-18.521,0a2.4,2.4,0,1,1,2.4,2.4A2.4,2.4,0,0,1,148.166,2.4Zm-18.521,0a2.4,2.4,0,1,1,2.4,2.4A2.4,2.4,0,0,1,129.646,2.4Zm-18.521,0a2.4,2.4,0,1,1,2.4,2.4A2.4,2.4,0,0,1,111.125,2.4ZM92.6,2.4a2.4,2.4,0,1,1,2.4,2.4A2.4,2.4,0,0,1,92.6,2.4Zm-18.521,0a2.4,2.4,0,1,1,2.4,2.4A2.4,2.4,0,0,1,74.083,2.4Zm-18.521,0a2.4,2.4,0,1,1,2.4,2.4A2.4,2.4,0,0,1,55.563,2.4Zm-18.521,0a2.4,2.4,0,1,1,2.4,2.4A2.4,2.4,0,0,1,37.042,2.4Zm-18.521,0a2.4,2.4,0,1,1,2.4,2.4A2.4,2.4,0,0,1,18.521,2.4ZM0,2.4A2.4,2.4,0,1,1,2.4,4.8,2.4,2.4,0,0,1,0,2.4Z" transform="translate(0 171.489) rotate(-90)"/></svg>