<svg xmlns="http://www.w3.org/2000/svg" width="31.001" height="27" viewBox="0 0 31.001 27"><defs><style>.a{fill:#bababa;}</style></defs><g transform="translate(0 -32)"><g transform="translate(6.948 38.713)"><g transform="translate(0 0)"><path class="a" d="M104.884,131.227h4.736v1.988h-4.736Z" transform="translate(-104.884 -131.227)"/></g><g transform="translate(0 4.521)"><path class="a" d="M104.884,199.484h4.736v1.988h-4.736Z" transform="translate(-104.884 -199.484)"/></g><g transform="translate(0 9.043)"><path class="a" d="M104.884,267.74h4.736v1.988h-4.736Z" transform="translate(-104.884 -267.74)"/></g><g transform="translate(0 13.564)"><path class="a" d="M104.884,336h4.736v1.988h-4.736Z" transform="translate(-104.884 -335.997)"/></g></g><g transform="translate(0 32)"><path class="a" d="M16.524,56.994V40.6l10.383-.012V51.648h1.987V39.586a1.008,1.008,0,0,0-.995-1L15.53,38.6a1,1,0,0,0-.992,1V56.994H4.094V37.145l10.443-2.835v2.277h1.987V33a1.006,1.006,0,0,0-1.252-.969L2.842,35.408a1,1,0,0,0-.736.969V56.994H0V59H31V56.994Z" transform="translate(0 -32)"/><g transform="translate(26.907 21.503)"><path class="a" d="M406.2,353.008h1.987v1.852H406.2Z" transform="translate(-406.2 -353.008)"/></g><g transform="translate(19.317 11.263)"><path class="a" d="M291.624,199.484h4.736v1.988h-4.736Z" transform="translate(-291.624 -199.484)"/><g transform="translate(0 4.521)"><path class="a" d="M291.624,267.74h4.736v1.988h-4.736Z" transform="translate(-291.624 -267.74)"/></g><g transform="translate(0 9.043)"><path class="a" d="M291.624,336h4.736v1.988h-4.736Z" transform="translate(-291.624 -335.997)"/></g></g></g></g></svg>