<svg xmlns="http://www.w3.org/2000/svg" width="63.888" height="53.994" viewBox="0 0 63.888 53.994"><defs><style>.a{opacity:0.073;}.b{fill:#f6f806;}.c{fill:#8bc8d6;}.d{fill:#fff;}.e{fill:#64afbc;}.f{fill:#378daf;}</style></defs><g transform="translate(0 0)"><g transform="translate(0 0)"><ellipse class="a" cx="24.11" cy="5.964" rx="24.11" ry="5.964" transform="translate(0 42.066)"/><g transform="translate(33.359)"><path class="b" d="M88.678,66.206a11.347,11.347,0,0,1-8.037-19.359L92.52,35.172A8.292,8.292,0,0,0,80.793,23.445L70.078,34.211a1.5,1.5,0,0,1-2.123-2.123L78.67,21.373A11.347,11.347,0,0,1,98.029,29.41a11.239,11.239,0,0,1-3.336,8.037L82.815,49.021A8.292,8.292,0,0,0,94.541,60.747a1.5,1.5,0,1,1,2.123,2.123,10.97,10.97,0,0,1-7.986,3.336Z" transform="translate(-67.5 -18.075)"/></g><path class="c" d="M17.472,61.823a14.826,14.826,0,0,1,0-20.925L29.2,29.172A14.8,14.8,0,0,1,52.553,46.9a14.2,14.2,0,0,1-2.43,3.2L38.346,61.823a14.765,14.765,0,0,1-20.875,0Z" transform="translate(-7.262 -21.426)"/><path class="d" d="M25.966,66.055a13.933,13.933,0,0,1-3.74-2.729,14.826,14.826,0,0,1,0-20.925L33.952,30.674a14.865,14.865,0,0,1,12.08-4.246,14.812,14.812,0,0,0-17.185,2.729L17.172,40.884a14.826,14.826,0,0,0,0,20.925A14.468,14.468,0,0,0,25.966,66.055Z" transform="translate(-7.113 -21.412)"/><path class="e" d="M49.866,23.9a13.934,13.934,0,0,1,3.74,2.729,14.826,14.826,0,0,1,0,20.925L41.88,59.231A14.865,14.865,0,0,1,29.8,63.476a14.812,14.812,0,0,0,17.185-2.729L58.711,49.071A14.8,14.8,0,0,0,49.866,23.9Z" transform="translate(-15.496 -20.956)"/><g transform="translate(4.366 1.908)"><path class="b" d="M26.444,66.2A16.177,16.177,0,0,1,14.92,61.452a16.4,16.4,0,0,1-.051-23.1L26.6,26.626A16.3,16.3,0,0,1,49.644,49.675L37.918,61.4a16.116,16.116,0,0,1-11.474,4.8Zm-9.4-6.925a13.3,13.3,0,0,0,18.752,0L47.521,47.552A13.26,13.26,0,0,0,28.769,28.8L17.043,40.526a13.21,13.21,0,0,0,0,18.752Z" transform="translate(-10.137 -21.85)"/></g><g transform="translate(28.134 6.522)"><path class="b" d="M0,0H20.925V2.022H0Z" transform="translate(0 14.794) rotate(-45)"/></g><g transform="translate(17.976 9.718)"><path class="b" d="M0,0H2.022V30.681H0Z" transform="translate(0 1.429) rotate(-45)"/></g><g transform="translate(31.338 8.858)"><path class="f" d="M0,0H8.289V3.942H0Z" transform="translate(1.038 6.879) rotate(-45)"/><path class="b" d="M67.291,46.265a1,1,0,0,1-.708-.3l-2.78-2.78a.977.977,0,0,1,0-1.415L69.666,35.9a.977.977,0,0,1,1.415,0l2.78,2.78a.977.977,0,0,1,0,1.415l-5.813,5.863A1.114,1.114,0,0,1,67.291,46.265Zm-1.365-3.791,1.365,1.365,4.448-4.448-1.365-1.365Z" transform="translate(-63.5 -35.6)"/></g></g></g></svg>