<svg xmlns="http://www.w3.org/2000/svg" width="315.597" height="295.602" viewBox="0 0 315.597 295.602"><defs><style>.a{fill:#ffea00;}.b{fill:#ff4230;}.c{fill:#fb0;}.d{fill:#d91907;}.e{fill:#3c3c3c;}.f{fill:#d9d9d9;}.g{fill:none;stroke:#fff;}.h{fill:#83c400;}.i{fill:#6fa600;}</style></defs><g transform="translate(0 0)"><path class="a" d="M439.651,146.916a125.054,125.054,0,0,1,62.82,16.849l11.761-20.372a149.048,149.048,0,0,0-149.166,0l11.764,20.372A125.036,125.036,0,0,1,439.651,146.916Z" transform="translate(-289.372 -106.151)"/><path class="a" d="M73.924,23.526a125.053,125.053,0,0,1,62.82,16.849L148.506,20A148.439,148.439,0,0,0,73.924,0C46.743,0,21.947,7.941,0,20.639l11.154,20A125.053,125.053,0,0,1,73.924,23.526Z" transform="matrix(0.921, -0.391, 0.391, 0.921, 23.233, 58.026)"/><path class="a" d="M74.585,23.526a125.053,125.053,0,0,1,62.82,16.849L149.166,20A149.047,149.047,0,0,0,0,20L11.764,40.375A125.036,125.036,0,0,1,74.585,23.526Z" transform="matrix(0.574, 0.819, -0.819, 0.574, 230.039, 20.218)"/><path class="b" d="M366.145,168.28H342.619a149.082,149.082,0,0,0,74.6,129.18l11.765-20.372A125.571,125.571,0,0,1,366.145,168.28Z" transform="translate(-341.523 -1.858)"/><path class="c" d="M435.664,138.947A125.054,125.054,0,0,1,498.485,155.8l6.062-10.5a137.653,137.653,0,0,0-137.764,0l5.835,10.51A125.886,125.886,0,0,1,435.664,138.947Z" transform="translate(-285.385 -98.183)"/><path class="c" d="M68.882,12.127A125.054,125.054,0,0,1,131.7,28.976l6.062-10.5A137.653,137.653,0,0,0,0,18.474l6.261,10.68A124.433,124.433,0,0,1,68.882,12.127Z" transform="matrix(0.921, -0.391, 0.391, 0.921, 32.328, 66.548)"/><path class="c" d="M68.882,12.127A125.053,125.053,0,0,1,131.7,28.976l6.062-10.5A137.652,137.652,0,0,0,0,18.474l6.062,10.5A125.036,125.036,0,0,1,68.882,12.127Z" transform="matrix(0.574, 0.819, -0.819, 0.574, 223.972, 31.427)"/><path class="d" d="M358.176,168.28H346.049a137.692,137.692,0,0,0,68.9,119.306l6.062-10.5A125.571,125.571,0,0,1,358.176,168.28Z" transform="translate(-333.554 -1.858)"/><g transform="translate(201.95 93.312) rotate(79)"><path class="e" d="M0,55.829,116.718,0,12.93,77.253Z" transform="translate(52.36 0)"/><ellipse class="f" cx="41.595" cy="41.595" rx="41.595" ry="41.595" transform="translate(0 67.322) rotate(-45)"/></g><line class="g" y2="24.989" transform="translate(150.49 16.004)"/><line class="g" x2="19.796" y2="15.376" transform="translate(30.739 76.583)"/><line class="g" x1="19.796" y2="15.376" transform="translate(250.581 75.594)"/><path class="h" d="M406.412,277.088l11.761,20.372a149.085,149.085,0,0,0,74.6-129.18H469.246A125.575,125.575,0,0,1,406.412,277.088Z" transform="translate(-193.312 -1.858)"/><path class="h" d="M444.03,150.353l-17.04,13.233c37.55,21.728,23.279,29.182,23.279,75.688H473.8C474.465,184.788,446.456,152.529,444.03,150.353Z" transform="translate(-174.335 -72.853)"/><path class="b" d="M456.769,150.353l17.04,13.233c-37.55,21.728-23.279,29.182-23.279,75.688H427C426.334,184.787,454.343,152.529,456.769,150.353Z" transform="translate(-425.856 -72.853)"/><path class="i" d="M435.757,151.71l-9.453,7.4c1.644,3.421,24.6,28.245,24.6,74.752h12.127C463.027,182.868,441.355,159.577,435.757,151.71Z" transform="translate(-174.967 -67.439)"/><path class="d" d="M453.575,151.71l9.452,7.4c-1.643,3.421-24.6,28.245-24.6,74.751H426.3C426.3,182.868,447.976,159.577,453.575,151.71Z" transform="translate(-413.757 -67.439)"/><path class="i" d="M481.372,168.28H469.246a125.575,125.575,0,0,1-62.834,108.808l6.062,10.5A137.689,137.689,0,0,0,481.372,168.28Z" transform="translate(-193.312 -1.858)"/><line class="g" y2="24.989" transform="translate(300.554 166.421) rotate(90)"/><line class="g" y2="24.989" transform="translate(24.989 166.421) rotate(90)"/></g></svg>