<svg xmlns="http://www.w3.org/2000/svg" width="26.157" height="31.395" viewBox="0 0 26.157 31.395"><defs><style>.a{fill:#565682;}</style></defs><path class="a" d="M1560.115,592.341a5.022,5.022,0,0,1-1.55-2.019c-1.354-2.7-1.636-6.511-1.636-9.229v-.036a8.89,8.89,0,0,0-5.524-8.079v-2.125a3.594,3.594,0,0,0-3.679-3.5h-.3a3.594,3.594,0,0,0-3.679,3.5v2.125a8.889,8.889,0,0,0-5.524,8.115c0,2.718-.283,6.526-1.624,9.229a4.98,4.98,0,0,1-1.562,2.019.867.867,0,0,0-.517,1.016.963.963,0,0,0,.972.72h7.1a4.993,4.993,0,0,0,9.966,0h7.111a.958.958,0,0,0,.96-.72A.867.867,0,0,0,1560.115,592.341Zm-14.431-21.487a1.707,1.707,0,0,1,1.747-1.655h.3a1.707,1.707,0,0,1,1.747,1.655v1.528a9.917,9.917,0,0,0-3.789,0Zm1.895,26.055a2.985,2.985,0,0,1-3.051-2.832h6.1A2.985,2.985,0,0,1,1547.578,596.909Zm3.9-4.675H1537.7a7.092,7.092,0,0,0,.5-.847c1.3-2.431,1.956-5.894,1.956-10.294a7.428,7.428,0,0,1,14.837,0v.034c0,4.382.664,7.833,1.956,10.257a9.173,9.173,0,0,0,.5.847Z" transform="translate(-1534.5 -567.356)"/></svg>