<svg xmlns="http://www.w3.org/2000/svg" width="20.088" height="20.086" viewBox="0 0 20.088 20.086"><defs><style>.a{fill:#378daf;}</style></defs><path class="a" d="M18.787,1.328a4.43,4.43,0,0,0-6.271,0L1.02,12.82a.575.575,0,0,0-.163.33L.006,19.459a.573.573,0,0,0,.163.484.585.585,0,0,0,.407.171.465.465,0,0,0,.077,0l3.8-.514A.579.579,0,1,0,4.3,18.449l-3.048.411.595-4.4,4.631,4.631a.585.585,0,0,0,.407.171.567.567,0,0,0,.407-.171L18.787,7.6a4.428,4.428,0,0,0,0-6.271ZM12.74,2.741l1.93,1.93L4.179,15.162l-1.93-1.93ZM6.888,17.867,5,15.979,15.492,5.488l1.888,1.888ZM18.184,6.55,13.566,1.932A3.281,3.281,0,0,1,18.184,6.55Z" transform="translate(0 -0.028)"/></svg>