<?xml version="1.0"?>
<svg xmlns="http://www.w3.org/2000/svg" xmlns:xlink="http://www.w3.org/1999/xlink" xmlns:svgjs="http://svgjs.com/svgjs" version="1.1" width="512" height="512" x="0" y="0" viewBox="0 0 512 512" style="enable-background:new 0 0 512 512" xml:space="preserve" class=""><g><g xmlns="http://www.w3.org/2000/svg"><path d="m392.011 311.493-90.296 35.858c.714-23.82-15.987-45.271-39.858-49.542l-64.601-11.57c-14.187-32.294-44.699-54.283-79.991-56.889-23.223-1.712-45.677 5.068-63.856 18.894-2.565-.468-.869-.16-38.41-.256-8.284 0-15 6.716-15 15s6.716 15 15 15h20.704v174.012h-20.703c-8.284 0-15 6.716-15 15s6.716 15 15 15h35.704c8.284 0 15-6.716 15-15v-19.002h39.279l165.882 33.702c3.422.696 7.127.195 10.381-1.649l194.148-110c6.38-3.615 9.211-11.312 6.694-18.199-13.319-36.455-54.014-54.684-90.077-40.359zm-120.672 139.69-161.861-32.885c-2.608-.53-.415-.198-43.773-.3v-140.81c13.275-12.772 30.971-19.277 49.355-17.917 26.202 1.934 48.582 19.589 57.016 44.977 1.733 5.216 6.181 9.067 11.591 10.036l72.905 13.057c9.947 1.779 16.61 11.51 14.908 21.731l-.032.164c-.02.103-.039.206-.057.309-1.782 10.266-11.275 16.996-21.14 15.242-.012-.002-.022-.004-.034-.006l-.018-.003c-.007-.001-.015-.003-.022-.004 0 0-.193-.035-.194-.035l-81.178-14.542c-8.144-1.458-15.949 3.964-17.409 12.12-1.461 8.154 3.965 15.949 12.12 17.41 91.036 16.308 80.291 14.371 81.43 14.587 20.375 3.643 21.361-1.624 158.138-54.938 16.701-6.632 34.627-.806 44.705 11.836z" fill="#378daf" data-original="#000000" style=""/><path d="m236.75 89c-25.364 0-46 20.636-46 46s20.636 46 46 46 46-20.636 46-46-20.636-46-46-46zm0 62c-8.822 0-16-7.178-16-16s7.178-16 16-16 16 7.178 16 16-7.178 16-16 16z" fill="#378daf" data-original="#000000" style=""/><path d="m467 91h-134.32c-17.147-36.89-54.338-61-95.68-61-58.173 0-105.5 47.327-105.5 105.5s47.327 105.5 105.5 105.5c40.828 0 77.839-23.715 95.202-60h29.548v45c0 8.284 6.716 15 15 15h60c8.284 0 15-6.716 15-15v-45h15.25c24.813 0 45-20.187 45-45s-20.187-45-45-45zm0 60h-30.25c-8.284 0-15 6.716-15 15v45h-30v-45c0-8.284-6.716-15-15-15h-54.524c-6.336 0-11.988 3.98-14.123 9.945-10.715 29.94-39.29 50.055-71.103 50.055-41.631 0-75.5-33.869-75.5-75.5s33.869-75.5 75.5-75.5c32.214 0 60.906 20.45 71.396 50.888 2.086 6.051 7.781 10.112 14.182 10.112h144.422c8.271 0 15 6.729 15 15s-6.729 15-15 15z" fill="#378daf" data-original="#000000" style=""/></g></g></svg>
