<svg xmlns="http://www.w3.org/2000/svg" width="371" height="332.094" viewBox="0 0 371 332.094"><defs><style>.a{fill:#e0e7ff;}.b,.x{fill:#fff;}.c,.k{fill:#83c400;}.c{font-size:34px;}.c,.x{font-family:Poppins-Bold, Poppins;font-weight:700;}.d{fill:#ffea00;}.e{fill:#ff4230;}.f{fill:#fb0;}.g{fill:#d91907;}.h{fill:#3c3c3c;}.i{fill:#d9d9d9;}.j,.m,.z{fill:none;}.j,.m{stroke:#fff;}.l{fill:#6fa600;}.m{stroke-miterlimit:10;stroke-dasharray:12;}.m,.z{stroke-width:2px;}.aa,.n,.o,.p,.q,.r{fill:#393939;}.n{font-size:7px;}.n,.o,.p,.q{font-family:Poppins-Medium, Poppins;font-weight:500;}.o{font-size:8px;}.p{font-size:9px;}.q{font-size:6px;}.r{font-size:11px;}.r,.y{font-family:Poppins-Regular, Poppins;}.s{fill:#3f98b8;}.t{fill:#02bdec;}.u{fill:#9ed3e3;}.v{fill:#07f9f4;}.w{fill:#3a485a;}.x{font-size:13px;}.x,.y{letter-spacing:0.1em;}.y{font-size:10px;}.z{stroke:#87a2fd;stroke-linecap:round;}</style></defs><g transform="translate(-927 -609.906)"><rect class="a" width="371" height="134" rx="5" transform="translate(927 808)"/><rect class="b" width="361" height="124" rx="5" transform="translate(932 813)"/><text class="c" transform="translate(1107.839 749.961)"><tspan x="-12.41" y="0">A</tspan></text><g transform="translate(1040.632 609.906)"><path class="d" d="M399.035,134.1a56.955,56.955,0,0,1,28.611,7.674L433,132.5a67.882,67.882,0,0,0-67.936,0l5.358,9.278A56.947,56.947,0,0,1,399.035,134.1Z" transform="translate(-330.592 -115.539)"/><path class="d" d="M33.668,10.714a56.954,56.954,0,0,1,28.611,7.674L67.635,9.11A67.605,67.605,0,0,0,33.668,0,66.722,66.722,0,0,0,0,9.4l5.08,9.109A56.954,56.954,0,0,1,33.668,10.714Z" transform="matrix(0.921, -0.391, 0.391, 0.921, 10.581, 26.427)"/><path class="d" d="M33.969,10.714A56.954,56.954,0,0,1,62.58,18.388L67.936,9.11A67.882,67.882,0,0,0,0,9.11l5.358,9.278A56.946,56.946,0,0,1,33.969,10.714Z" transform="matrix(0.574, 0.819, -0.819, 0.574, 104.769, 9.208)"/><path class="e" d="M353.334,168.28H342.619a67.9,67.9,0,0,0,33.975,58.834l5.358-9.278A57.19,57.19,0,0,1,353.334,168.28Z" transform="translate(-342.12 -92.485)"/><path class="f" d="M398.154,132.343a56.955,56.955,0,0,1,28.611,7.674l2.761-4.783a62.693,62.693,0,0,0-62.743,0l2.657,4.787A57.334,57.334,0,0,1,398.154,132.343Z" transform="translate(-329.711 -113.778)"/><path class="f" d="M31.372,5.523A56.954,56.954,0,0,1,59.982,13.2l2.761-4.783A62.692,62.692,0,0,0,0,8.414l2.852,4.864A56.672,56.672,0,0,1,31.372,5.523Z" transform="matrix(0.921, -0.391, 0.391, 0.921, 14.723, 30.308)"/><path class="f" d="M31.372,5.523A56.954,56.954,0,0,1,59.982,13.2l2.761-4.783A62.692,62.692,0,0,0,0,8.414L2.761,13.2A56.946,56.946,0,0,1,31.372,5.523Z" transform="matrix(0.574, 0.819, -0.819, 0.574, 102.006, 14.313)"/><path class="g" d="M351.572,168.28h-5.523a62.71,62.71,0,0,0,31.381,54.337l2.761-4.781A57.19,57.19,0,0,1,351.572,168.28Z" transform="translate(-340.358 -92.485)"/><g transform="translate(91.976 42.498) rotate(79)"><path class="h" d="M0,25.427,53.158,0,5.889,35.184Z" transform="translate(23.847 0)"/><ellipse class="i" cx="18.944" cy="18.944" rx="18.944" ry="18.944" transform="translate(0 30.661) rotate(-45)"/></g><line class="j" y2="11.381" transform="translate(68.539 7.288)"/><line class="j" x2="9.016" y2="7.003" transform="translate(13.999 34.879)"/><line class="j" x1="9.016" y2="7.003" transform="translate(114.124 34.428)"/><path class="k" d="M406.412,217.835l5.356,9.278a67.9,67.9,0,0,0,33.977-58.834H435.029A57.192,57.192,0,0,1,406.412,217.835Z" transform="translate(-309.358 -92.485)"/><path class="k" d="M434.751,150.353l-7.761,6.027c17.1,9.9,10.6,13.291,10.6,34.471h10.716C448.612,166.036,435.855,151.344,434.751,150.353Z" transform="translate(-311.921 -115.057)"/><path class="e" d="M440.552,150.353l7.761,6.027c-17.1,9.9-10.6,13.29-10.6,34.471H427C426.691,166.036,439.447,151.344,440.552,150.353Z" transform="translate(-426.474 -115.057)"/><path class="l" d="M430.609,151.71l-4.305,3.37c.749,1.558,11.2,12.864,11.2,34.045h5.523C443.029,165.9,433.159,155.293,430.609,151.71Z" transform="translate(-311.836 -113.33)"/><path class="g" d="M438.724,151.71l4.3,3.37c-.749,1.558-11.2,12.864-11.2,34.045H426.3C426.3,165.9,436.174,155.293,438.724,151.71Z" transform="translate(-420.59 -113.33)"/><path class="l" d="M440.552,168.28h-5.523a57.192,57.192,0,0,1-28.617,49.555l2.761,4.781A62.709,62.709,0,0,0,440.552,168.28Z" transform="translate(-309.358 -92.485)"/><line class="j" y2="11.381" transform="translate(136.884 75.794) rotate(90)"/><line class="j" y2="11.381" transform="translate(11.381 75.794) rotate(90)"/></g><path class="m" d="M241.743,325.951" transform="translate(828.967 566.063)"/><text class="n" transform="translate(945.264 827.033)"><tspan x="-2.387" y="0">A</tspan></text><text class="o" transform="translate(945.264 847.24)"><tspan x="-2.472" y="0">B</tspan></text><text class="p" transform="translate(945.49 867.449)"><tspan x="-3.424" y="0">C</tspan></text><text class="q" transform="translate(945.264 883.658)"><tspan x="-2.163" y="0">D</tspan></text><text class="p" transform="translate(946.038 905.865)"><tspan x="-2.318" y="0">E</tspan></text><text class="p" transform="translate(968.494 926)"><tspan x="-2.263" y="0">J</tspan></text><text class="o" transform="translate(1045.652 924.621)"><tspan x="-3.476" y="0">M</tspan></text><text class="p" transform="translate(1123.908 925.621)"><tspan x="-2.263" y="0">J</tspan></text><text class="q" transform="translate(1200.841 923)"><tspan x="-2.163" y="0">D</tspan></text><text class="r" transform="translate(1247.106 922.492)"><tspan x="-28.21" y="0">2021 Trend</tspan></text><circle class="s" cx="12.334" cy="12.334" r="12.334" transform="translate(928 769)"/><circle class="t" cx="12.334" cy="12.334" r="12.334" transform="translate(1021 769)"/><circle class="u" cx="12.334" cy="12.334" r="12.334" transform="translate(1093 769)"/><circle class="v" cx="12.334" cy="12.334" r="12.334" transform="translate(1156 769)"/><circle class="w" cx="12.334" cy="12.334" r="12.334" transform="translate(1223 769)"/><text class="x" transform="translate(940 786)"><tspan x="-4.745" y="0">A</tspan></text><text class="x" transform="translate(1034 786)"><tspan x="-4.245" y="0">B</tspan></text><text class="x" transform="translate(1106 786)"><tspan x="-4.92" y="0">C</tspan></text><text class="x" transform="translate(1168 786)"><tspan x="-4.765" y="0">D</tspan></text><text class="x" transform="translate(1235 786)"><tspan x="-3.49" y="0">E</tspan></text><text class="y" transform="translate(959.346 785)"><tspan x="0" y="0">Excellent</tspan></text><text class="y" transform="translate(1053.112 785)"><tspan x="0" y="0">Good</tspan></text><text class="y" transform="translate(1124.606 784)"><tspan x="0" y="0">Fair</tspan></text><text class="y" transform="translate(1187.561 784)"><tspan x="0" y="0">Poor</tspan></text><text class="y" transform="translate(1254.744 784)"><tspan x="0" y="0">Critical</tspan></text><path class="z" d="M-113.336,16980.764h73.878l15.877,38.418H13.9" transform="translate(1071.097 -16154.148)"/><path class="aa" d="M299.9,146.033H41v-94.9h.813v93.911l258.087-.019Z" transform="translate(915.552 768.896)"/></g></svg>