<svg xmlns="http://www.w3.org/2000/svg" width="100%" height="100%" viewBox="0 0 48.566 35.566">
  <g id="Group_10895" data-name="Group 10895" transform="translate(-1058 -182.718)">
    <text id="Rescan" transform="translate(1082 203.719)" fill="#378daf" font-size="9" font-family="Poppins-Regular, Poppins"><tspan x="-16.479" y="0">Rescan</tspan></text>
    <g id="refresh_1_" data-name="refresh (1)" transform="translate(1098.566 182.717) rotate(90)">
      <g id="Group_10891" data-name="Group 10891" transform="translate(1.963 -8)">
        <g id="Group_10890" data-name="Group 10890">
          <path id="Path_6084" data-name="Path 6084" d="M60.579,4.906a1.389,1.389,0,0,0-1.51,1.257l-.184,2.019a17.537,17.537,0,0,0-30.5,1.463,1.389,1.389,0,1,0,2.475,1.264,14.77,14.77,0,0,1,25.7-1.225L54.579,8.269a1.389,1.389,0,0,0-1.615,2.261l6.007,4.29a1.39,1.39,0,0,0,2.191-1l.675-7.4A1.389,1.389,0,0,0,60.579,4.906Z" transform="translate(-28.237)" fill="#378daf"/>
        </g>
      </g>
      <g id="Group_10893" data-name="Group 10893" transform="translate(0.001 25.486)">
        <g id="Group_10892" data-name="Group 10892">
          <path id="Path_6085" data-name="Path 6085" d="M32.848,298.478a1.389,1.389,0,0,0-1.869.605,14.77,14.77,0,0,1-25.7,1.225l1.981,1.415a1.389,1.389,0,1,0,1.615-2.261l-6.007-4.29a1.391,1.391,0,0,0-2.191,1l-.675,7.4a1.389,1.389,0,1,0,2.767.252l.184-2.019a17.537,17.537,0,0,0,30.5-1.462A1.389,1.389,0,0,0,32.848,298.478Z" transform="translate(-0.001 -294.913)" fill="#378daf"/>
        </g>
      </g>
    </g>
  </g>
</svg>
