<svg xmlns="http://www.w3.org/2000/svg" width="24.913" height="28.093" viewBox="0 0 24.913 28.093"><defs><style>.a{fill:#fff;stroke:#fff;stroke-width:0.3px;}</style></defs><g transform="translate(3937.15 -15894.767)"><g transform="translate(-3937 15895)"><path class="a" d="M52.377,26.193a.93.93,0,0,1-.9.7H47.1a.406.406,0,1,0,0,.812h4.379a1.742,1.742,0,0,0,1.74-1.734s0,0,0-.006h0V12.122a1.769,1.769,0,0,0-.522-1.25l0,0h0l0,0L51.1,9.3V8.386a.406.406,0,1,0-.812,0V12.7l-7.375,7.362-1.16-.637a1.732,1.732,0,0,0-1.676,0l-1.16.637L31.538,12.7V5.7a.948.948,0,0,1,.947-.947H49.336a.948.948,0,0,1,.947.947v.963a.406.406,0,1,0,.812,0V5.7a1.761,1.761,0,0,0-1.759-1.759H45.63L42.091.464,42.079.453a1.735,1.735,0,0,0-2.337,0L39.73.464,36.192,3.937H32.485A1.761,1.761,0,0,0,30.726,5.7V9.3l-1.6,1.566,0,0h0l0,0a1.77,1.77,0,0,0-.522,1.25v4.632a.406.406,0,0,0,.812,0V12.122a.945.945,0,0,1,.061-.33l8.695,8.679-8.756,4.812v-6.76a.406.406,0,0,0-.812,0v7.446h0s0,0,0,.006a1.742,1.742,0,0,0,1.74,1.734H45.329a.406.406,0,1,0,0-.812H30.345a.93.93,0,0,1-.9-.7l11.019-6.055a.924.924,0,0,1,.895,0ZM40.292,1.049a.926.926,0,0,1,1.236,0l2.942,2.887H37.35ZM30.726,11.892l-.734-.733.734-.72Zm21.618-.1a.945.945,0,0,1,.061.33v13.16L43.65,20.471Zm-.515-.633-.734.733V10.439Z" transform="translate(-28.604 0)"/></g><path class="a" d="M176,64h.866v4.329H176Zm0,0" transform="translate(-4101.149 15838.955)"/><path class="a" d="M176,160h.866v.866H176Zm0,0" transform="translate(-4101.149 15748.149)"/><path class="a" d="M131.326,32.866a3.9,3.9,0,0,1,3.016,6.361l.67.549a4.762,4.762,0,0,0-6.7-6.7l.549.67A3.9,3.9,0,0,1,131.326,32.866Zm0,0" transform="translate(-4056.042 15869.224)"/><path class="a" d="M100.762,72.088a4.771,4.771,0,0,0,3.014-1.075l-.549-.67a3.9,3.9,0,0,1-5.481-5.481l-.67-.549a4.762,4.762,0,0,0,3.687,7.776Zm0,0" transform="translate(-4025.478 15838.66)"/></g></svg>