<svg xmlns="http://www.w3.org/2000/svg" width="35.9" height="28.9" viewBox="0 0 35.9 28.9"><defs><style>.a{fill:#fff;stroke:#fff;stroke-width:0.9px;}</style></defs><g transform="translate(0.45 0.45)"><g transform="translate(0 0)"><g transform="translate(0 0)"><path class="a" d="M211.84,123.885a1.323,1.323,0,0,0-1.68-.158c-1.979,1.349-11.9,8.131-12.971,9.2a3.967,3.967,0,0,0,5.611,5.611c1.067-1.067,7.849-10.992,9.2-12.971A1.323,1.323,0,0,0,211.84,123.885Zm-10.91,12.781a1.322,1.322,0,0,1-1.87-1.87c.414-.41,3.232-2.419,6.7-4.829C203.348,133.434,201.339,136.252,200.929,136.666Z" transform="translate(-181.922 -118.327)"/><path class="a" d="M6.382,76.51l-1.708.829a14.714,14.714,0,0,1-.933-12.5l1.958.934a1.377,1.377,0,1,0,1.2-2.481l-1.933-.922A14.975,14.975,0,0,1,16.33,55.314v2.069a1.384,1.384,0,0,0,2.768,0v-2.07a14.842,14.842,0,0,1,4.758,1.246,1.387,1.387,0,0,0,1.831-.688,1.373,1.373,0,0,0-.692-1.82A17.809,17.809,0,0,0,5.188,57.657,17.492,17.492,0,0,0,3,79.888a1.389,1.389,0,0,0,1.757.472L7.6,78.984a1.372,1.372,0,0,0,.637-1.84A1.388,1.388,0,0,0,6.382,76.51Z" transform="translate(0 -52.499)"/><path class="a" d="M396.57,192.273a1.322,1.322,0,1,0-2.411,1.088,14.237,14.237,0,0,1-.569,12.827l-1.7-.812a1.322,1.322,0,0,0-1.137,2.388l2.777,1.322a1.322,1.322,0,0,0,1.668-.459,16.888,16.888,0,0,0,1.376-16.355Z" transform="translate(-363.062 -181.215)"/></g></g></g></svg>