<?xml version="1.0"?>
<svg xmlns="http://www.w3.org/2000/svg" xmlns:xlink="http://www.w3.org/1999/xlink" xmlns:svgjs="http://svgjs.com/svgjs" version="1.1" width="512" height="512" x="0" y="0" viewBox="0 0 512 512" style="enable-background:new 0 0 512 512" xml:space="preserve" class=""><g><path xmlns="http://www.w3.org/2000/svg" d="m482.773438 123.96875h-83.65625v-108.851562c0-8.347657-6.769532-15.117188-15.117188-15.117188h-368.882812c-8.347657 0-15.117188 6.769531-15.117188 15.117188v432.378906c0 35.566406 28.9375 64.503906 64.503906 64.503906h368.882813c35.566406 0 64.503906-28.9375 64.503906-64.503906v-308.410156c0-8.347657-6.769531-15.117188-15.117187-15.117188zm-15.121094 323.527344c0 18.894531-15.371094 34.269531-34.265625 34.269531-18.898438 0-34.269531-15.375-34.269531-34.269531v-293.292969h68.535156zm-403.148438 34.269531c-18.894531 0-34.269531-15.375-34.269531-34.269531v-417.261719h338.648437v417.261719c0 12.585937 3.636719 24.332031 9.894532 34.269531zm0 0" fill="#ffffff" data-original="#000000" style=""/><path xmlns="http://www.w3.org/2000/svg" d="m313.449219 70.550781h-227.78125c-8.347657 0-15.117188 6.769531-15.117188 15.117188v106.835937c0 8.347656 6.769531 15.117188 15.117188 15.117188h227.78125c8.347656 0 15.117187-6.769532 15.117187-15.117188v-106.835937c0-8.347657-6.769531-15.117188-15.117187-15.117188zm-15.117188 106.835938h-197.542969v-76.597657h197.542969zm0 0" fill="#ffffff" data-original="#000000" style=""/><path xmlns="http://www.w3.org/2000/svg" d="m313.449219 411.210938h-227.78125c-8.347657 0-15.117188 6.769531-15.117188 15.121093 0 8.347657 6.769531 15.117188 15.117188 15.117188h227.78125c8.347656 0 15.117187-6.769531 15.117187-15.117188 0-8.351562-6.769531-15.121093-15.117187-15.121093zm0 0" fill="#ffffff" data-original="#000000" style=""/><path xmlns="http://www.w3.org/2000/svg" d="m313.449219 352.757812h-227.78125c-8.347657 0-15.117188 6.765626-15.117188 15.117188 0 8.347656 6.769531 15.117188 15.117188 15.117188h227.78125c8.347656 0 15.117187-6.769532 15.117187-15.117188 0-8.351562-6.769531-15.117188-15.117187-15.117188zm0 0" fill="#ffffff" data-original="#000000" style=""/><path xmlns="http://www.w3.org/2000/svg" d="m313.449219 294.300781h-227.78125c-8.347657 0-15.117188 6.765625-15.117188 15.117188 0 8.347656 6.769531 15.117187 15.117188 15.117187h227.78125c8.347656 0 15.117187-6.769531 15.117187-15.117187 0-8.351563-6.769531-15.117188-15.117187-15.117188zm0 0" fill="#ffffff" data-original="#000000" style=""/><path xmlns="http://www.w3.org/2000/svg" d="m313.449219 235.84375h-227.78125c-8.347657 0-15.117188 6.769531-15.117188 15.117188 0 8.347656 6.769531 15.117187 15.117188 15.117187h227.78125c8.347656 0 15.117187-6.769531 15.117187-15.117187 0-8.347657-6.769531-15.117188-15.117187-15.117188zm0 0" fill="#ffffff" data-original="#000000" style=""/></g></svg>
