<svg xmlns="http://www.w3.org/2000/svg" width="22.275" height="30.376" viewBox="0 0 22.275 30.376"><defs><style>.a{fill:#fff;}</style></defs><g transform="translate(-64)"><g transform="translate(64)"><path class="a" d="M86.271,5.569a.506.506,0,0,0-.144-.358L81.064.148A.5.5,0,0,0,80.707,0V0H65.519A1.519,1.519,0,0,0,64,1.519V28.857a1.519,1.519,0,0,0,1.519,1.519H84.757a1.519,1.519,0,0,0,1.519-1.519V5.569Zm-5.058-3.84,3.334,3.334H81.719a.506.506,0,0,1-.506-.506Zm4.05,27.128a.506.506,0,0,1-.506.506H65.519a.506.506,0,0,1-.506-.506V1.519a.506.506,0,0,1,.506-.506H80.2V4.556a1.519,1.519,0,0,0,1.519,1.519h3.544Z" transform="translate(-64)"/></g><g transform="translate(67.544 13.669)"><path class="a" d="M121.519,216a1.519,1.519,0,1,0,1.519,1.519A1.519,1.519,0,0,0,121.519,216Zm0,2.025a.506.506,0,1,1,.506-.506A.506.506,0,0,1,121.519,218.025Z" transform="translate(-120 -216)"/></g><g transform="translate(72.415 14.874)"><g transform="translate(0 0)"><rect class="a" width="10.187" height="0.886"/></g></g><g transform="translate(67.544 8.606)"><path class="a" d="M121.519,136a1.519,1.519,0,1,0,1.519,1.519A1.519,1.519,0,0,0,121.519,136Zm0,2.025a.506.506,0,1,1,.506-.506A.506.506,0,0,1,121.519,138.025Z" transform="translate(-120 -136)"/></g><g transform="translate(72.415 9.56)"><g transform="translate(0 0)"><rect class="a" width="10.187" height="0.886"/></g></g><g transform="translate(67.544 18.732)"><path class="a" d="M121.519,296a1.519,1.519,0,1,0,1.519,1.519A1.519,1.519,0,0,0,121.519,296Zm0,2.025a.506.506,0,1,1,.506-.506A.506.506,0,0,1,121.519,298.025Z" transform="translate(-120 -296)"/></g><g transform="translate(72.415 19.746)"><g transform="translate(0 0)"><rect class="a" width="10.187" height="0.886"/></g></g><g transform="translate(67.544 23.794)"><path class="a" d="M121.519,376a1.519,1.519,0,1,0,1.519,1.519A1.519,1.519,0,0,0,121.519,376Zm0,2.025a.506.506,0,1,1,.506-.506A.506.506,0,0,1,121.519,378.025Z" transform="translate(-120 -376)"/></g><g transform="translate(72.415 24.618)"><g transform="translate(0 0)"><rect class="a" width="10.187" height="1.329"/></g></g></g></svg>