<svg xmlns="http://www.w3.org/2000/svg" width="25.907" height="25.907" viewBox="0 0 25.907 25.907"><defs><style>.a{fill:#fff;stroke:#ffffff;stroke-width:0.3px;}</style></defs><path class="a" d="M23.576,16.255a11.994,11.994,0,0,0-3.059-1.915,1,1,0,1,0-.812,1.828,10,10,0,0,1,2.551,1.59,3.989,3.989,0,0,1,1.351,3v1.851a1,1,0,0,1-1,1H3a1,1,0,0,1-1-1V20.756a3.989,3.989,0,0,1,1.351-3C4.362,16.87,7.307,14.8,12.8,14.8a7.411,7.411,0,1,0-4.509-1.536,13.907,13.907,0,0,0-6.264,2.987A5.989,5.989,0,0,0,0,20.756v1.851a3,3,0,0,0,3,3H22.607a3,3,0,0,0,3-3V20.756A5.989,5.989,0,0,0,23.576,16.255ZM7.4,7.4a5.4,5.4,0,1,1,5.4,5.4A5.408,5.408,0,0,1,7.4,7.4Zm0,0" transform="translate(0.15 0.15)"/></svg>