<svg xmlns="http://www.w3.org/2000/svg" width="29.585" height="29.554" viewBox="0 0 29.585 29.554"><defs><style>.a,.b{fill:#fff;stroke-width:0.4px;}.a{stroke:#ffffff;}.b{stroke:#fff;}</style></defs><g transform="translate(0.2 0.2)"><path class="a" d="M12.307,31a2.874,2.874,0,0,1-2.06-.845L2.7,22.608a2.884,2.884,0,0,1,0-4.121L18.488,2.695a2.864,2.864,0,0,1,2.06-.845H28.13a2.884,2.884,0,0,1,2.884,2.884v7.572a2.864,2.864,0,0,1-.845,2.06l-15.8,15.792a2.874,2.874,0,0,1-2.06.845Zm-.577-2.3a.824.824,0,0,0,1.164,0L28.707,12.893a.814.814,0,0,0,.237-.577V4.734a.824.824,0,0,0-.824-.824H20.548a.814.814,0,0,0-.577.237L4.148,19.96a.824.824,0,0,0,0,1.164Z" transform="translate(-1.83 -1.85)"/><ellipse class="b" cx="1.03" cy="1.03" rx="1.03" ry="1.03" transform="translate(22.52 4.512)"/></g></svg>