<?xml version="1.0"?>
<svg xmlns="http://www.w3.org/2000/svg" xmlns:xlink="http://www.w3.org/1999/xlink" xmlns:svgjs="http://svgjs.com/svgjs" version="1.1" width="512" height="512" x="0" y="0" viewBox="0 0 512.013 512.013" style="enable-background:new 0 0 512 512" xml:space="preserve" class=""><g><g xmlns="http://www.w3.org/2000/svg"><path d="m60.05 60h30v30h-30z" fill="#ffffff" data-original="#000000" style=""/><path d="m120.05 60h211v30h-211z" fill="#ffffff" data-original="#000000" style=""/><path d="m60.05 120h271v30h-271z" fill="#ffffff" data-original="#000000" style=""/><path d="m391.05 512v-57.261l57.274 57.274 63.639-63.64-120.913-120.912v-327.461h-391v383.213l128.787 128.787zm57.273-84.84 21.214 21.214-21.213 21.213-21.214-21.214zm-21.213-21.213-21.213 21.213-142.895-142.894 21.213-21.213zm-185.321-142.893-8.103-8.103-10.606-31.82 31.819 10.607 8.103 8.103zm-211.739-233.054h331v267.461l-89.946-89.945-95.46-31.82 31.821 95.46 153.585 153.584v57.26h-211v-120h-120zm90 430.787-68.787-68.787h68.787z" fill="#ffffff" data-original="#000000" style=""/></g></g></svg>
