<svg xmlns="http://www.w3.org/2000/svg" width="26.488" height="26.488" viewBox="0 0 26.488 26.488"><defs><style>.a{fill:#fff;}</style></defs><g transform="translate(0)"><path class="a" d="M146.434,141.7a.776.776,0,0,0,.694-.429l.779-1.558a.776.776,0,1,0-1.388-.694l-.565,1.129h-1.083a3.1,3.1,0,0,0-.9-2.136l.787-1.312a.776.776,0,1,0-1.331-.8l-.787,1.311a3.1,3.1,0,0,0-1.771,0l-.787-1.311a.776.776,0,0,0-1.331.8l.787,1.312a3.1,3.1,0,0,0-.9,2.136h-1.083L137,139.021a.776.776,0,1,0-1.388.694l.779,1.558a.776.776,0,0,0,.694.429h1.562v1.616h-1.562a.776.776,0,0,0-.694.429l-.779,1.558A.776.776,0,0,0,137,146l.565-1.129h1.18a3.114,3.114,0,0,0,6.032,0h1.18l.565,1.129a.776.776,0,0,0,1.388-.694l-.779-1.558a.776.776,0,0,0-.694-.429h-1.562V141.7Zm-3.115-1.552H140.2a1.561,1.561,0,0,1,3.121,0Zm-1.56,5.506A1.563,1.563,0,0,1,140.2,144.1V141.7h3.123V144.1A1.563,1.563,0,0,1,141.759,145.657Z" transform="translate(-128.515 -128.513)"/><path class="a" d="M25.712,12.468H24.9A11.685,11.685,0,0,0,14.02,1.584V.776a.776.776,0,0,0-1.552,0v.808A11.685,11.685,0,0,0,1.584,12.468H.776a.776.776,0,0,0,0,1.552h.808A11.685,11.685,0,0,0,12.468,24.9v.808a.776.776,0,0,0,1.552,0V24.9A11.685,11.685,0,0,0,24.9,14.02h.808a.776.776,0,0,0,0-1.552ZM14.02,23.347v-.753a.776.776,0,0,0-1.552,0v.753A10.149,10.149,0,0,1,3.14,14.02h.753a.776.776,0,1,0,0-1.552H3.14A10.149,10.149,0,0,1,12.468,3.14v.753a.776.776,0,0,0,1.552,0V3.14a10.149,10.149,0,0,1,9.327,9.327h-.753a.776.776,0,1,0,0,1.552h.753A10.149,10.149,0,0,1,14.02,23.347Z"/></g></svg>