<?xml version="1.0"?>
<svg xmlns="http://www.w3.org/2000/svg" xmlns:xlink="http://www.w3.org/1999/xlink" xmlns:svgjs="http://svgjs.com/svgjs" version="1.1" width="512" height="512" x="0" y="0" viewBox="0 0 32 32" style="enable-background:new 0 0 512 512" xml:space="preserve"><g><g xmlns="http://www.w3.org/2000/svg" id="Layer_29" data-name="Layer 29"><path d="M28,27H27V16a1.0011,1.0011,0,0,0-.6284-.9287l-10-4a1,1,0,1,0-.7432,1.8574L25,16.6772V19H18a1,1,0,0,0,0,2h7v2H18a1,1,0,0,0,0,2h7v2H14.92L12.9966,3.917A1,1,0,0,0,12,3H8a1,1,0,0,0-.9966.917L5.08,27H4a1,1,0,0,0,0,2H28a1,1,0,0,0,0-2ZM11.08,5l.3333,4H8.5866L8.92,5ZM8.42,11h3.16l1.3332,16H7.0868Z" fill="#ffffff" data-original="#000000" style=""/></g></g></svg>
