<svg xmlns="http://www.w3.org/2000/svg" width="29.779" height="35.146" viewBox="0 0 29.779 35.146"><defs><style>.a,.b{fill:#fff;stroke-width:0.2px;}.a{stroke:#ffffff;}.b{stroke:#fff;}</style></defs><g transform="translate(0.1 0.1)"><g transform="translate(7.053 12.444)"><path class="a" d="M9.916,24.352a2.218,2.218,0,0,1-1.59-.652L2.5,17.872a2.226,2.226,0,0,1,0-3.181L14.687,2.5a2.21,2.21,0,0,1,1.59-.652h5.852a2.226,2.226,0,0,1,2.226,2.226V9.921a2.21,2.21,0,0,1-.652,1.59L11.506,23.7a2.218,2.218,0,0,1-1.59.652Zm-.445-1.773a.636.636,0,0,0,.9,0l12.2-12.205a.628.628,0,0,0,.183-.445V4.076a.636.636,0,0,0-.636-.636H16.277a.628.628,0,0,0-.445.183L3.619,15.828a.636.636,0,0,0,0,.9Z" transform="translate(-1.83 -1.85)"/><ellipse class="b" cx="0.795" cy="0.795" rx="0.795" ry="0.795" transform="translate(17.381 3.483)"/></g><path class="b" d="M6.254,30.726a.566.566,0,1,1,0,1.132H1.7a1.709,1.709,0,0,1-1.2-.5v0a1.693,1.693,0,0,1-.5-1.2V1.7A1.7,1.7,0,0,1,1.7,0H17.622a1.669,1.669,0,0,1,.684.142,1.82,1.82,0,0,1,.566.409v0l4.273,4.572c.012.012.02.024.031.035a1.675,1.675,0,0,1,.306.5,1.767,1.767,0,0,1,.11.613V9.046a.568.568,0,0,1-1.136,0V6.27a.6.6,0,0,0-.031-.212.791.791,0,0,0-.086-.146c-.008-.008-.016-.012-.024-.02L18.047,1.321a.693.693,0,0,0-.2-.146.588.588,0,0,0-.228-.043H1.7a.55.55,0,0,0-.4.169l0,0a.57.57,0,0,0-.165.4V30.155a.564.564,0,0,0,.165.4l0,0a.578.578,0,0,0,.4.165Z" transform="translate(0 0)"/><path class="b" d="M21.61,17.864a.566.566,0,0,1,0,1.132h-7.9a.566.566,0,1,1,0-1.132Zm-10.6,0a.566.566,0,1,1,0,1.132h-.424a.566.566,0,1,1,0-1.132Z" transform="translate(-7.183 -12.805)"/><path class="b" d="M17.887,36.007a.566.566,0,1,1,0,1.132H13.708a.566.566,0,1,1,0-1.132Zm-6.875,0a.566.566,0,1,1,0,1.132h-.425a.566.566,0,1,1,0-1.132Z" transform="translate(-7.183 -20.666)"/><path class="b" d="M21.61,26.942a.566.566,0,0,1,0,1.132h-7.9a.566.566,0,1,1,0-1.132Zm-10.6,0a.566.566,0,1,1,0,1.132h-.424a.566.566,0,1,1,0-1.132Z" transform="translate(-7.183 -19.312)"/><path class="b" d="M21.61,26.942a.566.566,0,0,1,0,1.132h-7.9a.566.566,0,1,1,0-1.132Zm-10.6,0a.566.566,0,1,1,0,1.132h-.424a.566.566,0,1,1,0-1.132Z" transform="translate(-7.183 -16.742)"/><path class="b" d="M21.61,26.942a.566.566,0,0,1,0,1.132h-7.9a.566.566,0,1,1,0-1.132Zm-10.6,0a.566.566,0,1,1,0,1.132h-.424a.566.566,0,1,1,0-1.132Z" transform="translate(-7.183 -14.171)"/><path class="b" d="M61.735.208,66.889,5.8a.566.566,0,0,1-.417.947h-3.55A2.185,2.185,0,0,1,61.374,6.1l-.035-.035a2.181,2.181,0,0,1-.609-1.514V.566A.566.566,0,0,1,61.3,0a.577.577,0,0,1,.44.208Zm3.448,5.409-3.322-3.6v2.54a1.059,1.059,0,0,0,.287.727l.024.024a1.06,1.06,0,0,0,.75.31Z" transform="translate(-43.53 0)"/></g></svg>