<?xml version="1.0"?>
<svg xmlns="http://www.w3.org/2000/svg" xmlns:xlink="http://www.w3.org/1999/xlink" xmlns:svgjs="http://svgjs.com/svgjs" version="1.1" width="512" height="512" x="0" y="0" viewBox="0 0 496.00128 496" style="enable-background:new 0 0 512 512" xml:space="preserve" class=""><g><path xmlns="http://www.w3.org/2000/svg" d="m91.785156 439.441406c-4.425781 0-8-3.578125-8-8v-38.570312c0-4.421875 3.574219-8 8-8 4.421875 0 8 3.578125 8 8v38.570312c0 4.414063-3.585937 8-8 8zm0 0" fill="#ffffff" data-original="#000000" style="" class=""/><path xmlns="http://www.w3.org/2000/svg" d="m260.199219 451.207031h-252.199219c-4.425781 0-8-3.574219-8-8v-78.351562c0-72.167969 44.257812-136.734375 110.121094-160.648438 2.726562-1 5.757812-.429687 7.933594 1.449219 18.167968 15.558594 41.089843 24.136719 64.554687 24.136719 23.574219 0 46.566406-8.625 64.742187-24.296875 2.191407-1.878906 5.25-2.449219 7.960938-1.457032 17.007812 6.1875 32.855469 15.1875 47.101562 26.761719 1.953126 1.574219 3.050782 3.984375 2.953126 6.496094-.085938 2.503906-1.34375 4.832031-3.398438 6.265625l-.96875.679688-4.398438-6.273438-4.265624 5.257812c-11.671876-9.480468-24.519532-17.042968-38.257813-22.53125-20.453125 16.21875-45.644531 25.105469-71.46875 25.105469-25.707031 0-50.824219-8.824219-71.25-24.9375-57.222656 22.808594-95.359375 80.089844-95.359375 143.992188v70.351562h244.199219zm0 0" fill="#ffffff" data-original="#000000" style="" class=""/><path xmlns="http://www.w3.org/2000/svg" d="m182.609375 245.792969c-65.074219 0-118.007813-55.136719-118.007813-122.894531 0-67.761719 52.933594-122.898438 118.007813-122.898438 65.070313 0 118.015625 55.128906 118.015625 122.886719 0 67.761719-52.945312 122.90625-118.015625 122.90625zm0-229.792969c-56.25 0-102.007813 47.953125-102.007813 106.886719 0 58.945312 45.757813 106.898437 102.007813 106.898437 56.246094 0 102.015625-47.953125 102.015625-106.898437 0-58.933594-45.769531-106.886719-102.015625-106.886719zm0 0" fill="#ffffff" data-original="#000000" style="" class=""/><g xmlns="http://www.w3.org/2000/svg" fill="#010101"><path d="m356.847656 411.207031c-3.335937 0-6.6875-.300781-10.023437-.917969-14.679688-2.726562-27.503907-11.191406-36.128907-23.855468-8.574218-12.632813-11.832031-27.769532-9.167968-42.601563 2.679687-14.863281 11.007812-27.863281 23.449218-36.617187 12.488282-8.773438 27.464844-12.078125 42.160157-9.382813 14.6875 2.730469 27.503906 11.199219 36.109375 23.863281l.066406.089844c8.488281 12.847656 11.71875 27.953125 9.113281 42.503906-2.683593 14.855469-11 27.855469-23.449219 36.609376-9.65625 6.78125-20.792968 10.308593-32.128906 10.308593zm.28125-98.300781c-8.082031 0-16.03125 2.527344-22.945312 7.398438-8.976563 6.304687-14.976563 15.664062-16.894532 26.359374-1.921874 10.6875.445313 21.617188 6.65625 30.777344 6.191407 9.101563 15.359376 15.175782 25.808594 17.121094 10.398438 1.917969 21.078125-.464844 30.023438-6.753906 8.976562-6.304688 14.976562-15.664063 16.894531-26.351563 1.878906-10.472656-.496094-21.417969-6.6875-30.816406-6.175781-9.078125-15.328125-15.144531-25.769531-17.078125-2.367188-.433594-4.726563-.65625-7.085938-.65625zm0 0" fill="#ffffff" data-original="#010101" style="" class=""/><path d="m358.871094 496c-1.015625 0-2.046875-.09375-3.070313-.28125l-46.890625-8.6875c-8.957031-1.664062-14.703125-10.046875-13.078125-19.085938l3.742188-20.832031c-.519531-.34375-1.015625-.695312-1.476563-1.046875l-.601562-.394531-17.304688 12.167969c-3.128906 2.394531-7.496094 3.472656-11.734375 2.761718-4.378906-.714843-8.3125-3.234374-10.808593-6.914062l-27.023438-39.742188c-2.359375-3.207031-3.367188-7.480468-2.65625-11.785156.710938-4.34375 3.167969-8.273437 6.75-10.785156l16.9375-12.222656c-.136719-.65625-.25-1.28125-.351562-1.863282-.058594-.296874-.105469-.601562-.152344-.914062l-20.449219-3.789062c-4.191406-.785157-7.960937-3.296876-10.328125-6.90625-2.429688-3.710938-3.207031-8.144532-2.207031-12.488282l8.496093-47.277344c.792969-4.417968 3.183594-8.203124 6.75-10.671874 3.546876-2.457032 7.882813-3.363282 12.21875-2.5625l20.296876 3.769531c.316406-.503907.644531-.984375.972656-1.433594l.503906-.816406-12.070312-17.75c-2.351563-3.191407-3.359376-7.457031-2.664063-11.761719.710937-4.34375 3.167969-8.277344 6.742187-10.800781l39.128907-27.503907c3.136719-2.382812 7.511719-3.4375 11.738281-2.757812 4.375.710938 8.3125 3.230469 10.808594 6.910156l12.007812 17.65625c.222656-.054687.445313-.117187.664063-.175781.261719-.078125.535156-.144531.8125-.191406.28125-.054688.570312-.105469.859375-.144531l3.75-20.871094c.808594-4.433594 3.199218-8.207032 6.769531-10.679688 3.535156-2.449218 7.863281-3.34375 12.207031-2.550781l46.664063 8.648437c8.960937 1.660157 14.703125 10.046876 13.078125 19.085938l-3.75 20.832031c.527344.34375 1.023437.695313 1.488281 1.046875l.597656.394532 17.304688-12.167969c3.136719-2.386719 7.511719-3.449219 11.738281-2.761719 4.375.710938 8.3125 3.230469 10.808594 6.914062l26.8125 39.726563c2.335937 3.167969 3.34375 7.433594 2.648437 11.734375-.710937 4.34375-3.167969 8.28125-6.742187 10.800781l-17.472656 12.273438c.070312.320312.144531.632812.222656.925781.074218.257812.136718.511719.175781.785156.058594.3125.113281.625.160156.945313l20.441407 3.789062c8.191406 1.523438 13.929687 9.105469 13.65625 18.011719-.015626.390625-.054688.78125-.128907 1.167969l-8.566406 47.671875c-.800781 4.421875-3.191406 8.207031-6.769531 10.679687-3.550782 2.445313-7.871094 3.320313-12.214844 2.542969l-20.28125-3.769531c-.320312.503906-.648438.984375-.976562 1.433593l-.503907.808594 12.074219 17.757813c2.359375 3.210937 3.367188 7.480469 2.65625 11.785156-.714844 4.34375-3.167969 8.273437-6.753906 10.785156l-39.113282 27.496094c-3.132812 2.390625-7.492187 3.460937-11.734374 2.765625-4.367188-.71875-8.304688-3.230469-10.808594-6.902344l-11.949219-17.585937c-.523437.105469-1.035156.203125-1.53125.296875-.285156.046875-.566406.105468-.863281.144531l-3.75 20.863281c-.792969 4.417969-3.183594 8.199219-6.753906 10.671875-2.710938 1.855469-5.871094 2.824219-9.152344 2.824219zm-61.3125-68.152344c1.960937 0 3.914062.722656 5.441406 2.136719.816406.753906 1.753906 1.320313 2.6875 1.9375l1.832031 1.214844c.800781.59375 1.984375 1.398437 4.304688 2.472656 3.304687 1.527344 5.167969 5.09375 4.519531 8.679687l-4.757812 26.488282 47.132812 9.207031 5.074219-26.816406c.558593-3.121094 2.894531-5.597657 5.976562-6.359375 1.644531-.398438 3.261719-.617188 4.824219-.808594.652344-.085938 1.292969-.160156 1.910156-.269531.96875-.179688 3.320313-.617188 4.832032-1.21875 3.503906-1.398438 7.496093-.175781 9.601562 2.921875l15.175781 22.328125 39.214844-27.449219-15.128906-22.800781c-2.0625-3.039063-1.800781-7.09375.65625-9.832031.746093-.832032 1.304687-1.792969 1.914062-2.75l1.199219-1.855469c.582031-.808594 1.382812-2.035157 2.464844-4.425781 1.503906-3.359376 5.0625-5.230469 8.757812-4.59375l26.046875 4.832031 8.746094-47.261719c-.074219-.816406-.417969-1.304688-.570313-1.335938l-26.046874-4.832031c-3.109376-.578125-5.589844-2.9375-6.320313-6.023437-.398437-1.65625-.597656-3.273438-.789063-4.824219-.066406-.570313-.128906-1.136719-.210937-1.671875-.214844-.824219-.40625-1.6875-.582031-2.578125-.191406-.910156-.351563-1.863281-.679688-2.71875-1.351562-3.433594-.167968-7.335937 2.839844-9.464844l21.96875-15.4375-26.761719-40.203125-22.054687 15.417969c-3.097656 2.167969-7.273438 1.886719-10.042969-.679687-.8125-.753907-1.75-1.320313-2.6875-1.9375l-1.832031-1.214844c-.800782-.59375-1.992188-1.410156-4.304688-2.472656-3.308594-1.511719-5.175781-5.097657-4.527344-8.679688l4.769532-26.488281-46.90625-9.167969-5.070313 26.816406c-.558593 3.105469-2.886719 5.589844-5.945312 6.351563-1.65625.40625-3.261719.625-4.824219.816406-.542969.070313-1.078125.136719-1.589844.214844-.824218.21875-1.6875.417969-2.558594.601562-.875.183594-1.785156.34375-2.585937.664063-3.488281 1.449218-7.503906.214844-9.632813-2.90625l-15.175781-22.328125-39.214843 27.441406 15.128906 22.800781c2.070312 3.046875 1.796875 7.113282-.671875 9.847656-.738281.824219-1.289063 1.769532-1.890625 2.71875l-1.207032 1.875c-.582031.804688-1.382812 2.03125-2.464843 4.421876-1.503907 3.359374-5.039063 5.230468-8.757813 4.59375l-26.050781-4.832032-8.871094 48 25.832031 5.261719c3.105469.578125 5.578126 2.929687 6.320313 6 .398437 1.671875.609375 3.296875.800781 4.863281.078125.671875.160156 1.328125.261719 1.960938.167969.953125.59375 3.390625 1.210937 4.984375 1.335938 3.398437.191407 7.265625-2.769531 9.398437l-21.511719 15.523438 26.886719 40.277344 22.074219-15.390626c1.382812-.960937 2.992188-1.441406 4.589844-1.441406zm0 0" fill="#ffffff" data-original="#ffffff" style="" class=""/></g></g></svg>
