<?xml version="1.0"?>
<svg xmlns="http://www.w3.org/2000/svg" xmlns:xlink="http://www.w3.org/1999/xlink" xmlns:svgjs="http://svgjs.com/svgjs" version="1.1" width="512" height="512" x="0" y="0" viewBox="0 0 24 24" style="enable-background:new 0 0 512 512" xml:space="preserve"><g><g xmlns="http://www.w3.org/2000/svg" id="XMLID_1_"><path d="m24 11.997c0 .72-.06 1.44-.19 2.14-.04.25-.25.42-.49.42-.03 0-.06-.01-.09-.01-.27-.05-.45-.31-.4-.58.11-.65.17-1.31.17-1.97 0-.27.22-.52.5-.52s.5.2.5.48z" fill="#ffffff" data-original="#000000" style=""/><path d="m22.6 9.037c-.18-.63-.42-1.25-.7-1.85-.12-.24-.02-.54.23-.66.24-.12.54-.02.66.23.32.64.58 1.32.77 2.01.07.26-.08.54-.35.61-.04.02-.09.02-.13.02-.22 0-.42-.14-.48-.36z" fill="#ffffff" data-original="#000000" style=""/><path d="m22.82 17.207c-.32.64-.69 1.26-1.11 1.84-.1.14-.25.21-.4.21-.11 0-.21-.03-.3-.1-.22-.16-.27-.47-.11-.7.39-.53.73-1.09 1.02-1.69.12-.25.41-.35.66-.23s.36.42.24.67z" fill="#ffffff" data-original="#000000" style=""/><path d="m20 11.997c0-.17-.01-.34-.02-.5h.52v1h-.52c.01-.16.02-.33.02-.5z" fill="#ffffff" data-original="#000000" style=""/><path d="m19.98 11.497c.01.16.02.33.02.5s-.01.34-.02.5h-3c.02-.16.02-.33.02-.5s0-.34-.02-.5z" fill="#ffffff" data-original="#000000" style=""/><path d="m20.26 4.737c-.44-.49-.92-.95-1.43-1.36-.22-.17-.25-.49-.08-.7.17-.22.48-.25.7-.08.56.44 1.08.94 1.56 1.48.18.2.16.52-.05.7-.09.09-.21.13-.33.13-.13 0-.27-.06-.37-.17z" fill="#ffffff" data-original="#000000" style=""/><path d="m17.02 22.367c-.13-.25-.04-.55.2-.68.58-.31 1.13-.68 1.64-1.09.22-.17.53-.14.71.08.17.21.13.53-.08.7-.56.45-1.17.85-1.8 1.19-.07.04-.15.06-.23.06-.18 0-.35-.1-.44-.26z" fill="#ffffff" data-original="#000000" style=""/><path d="m18.65 17.277-.64.77c-.14-.12-.28-.23-.43-.33.24-.23.46-.48.67-.74.14.08.27.19.4.3z" fill="#ffffff" data-original="#000000" style=""/><path d="m16.5 15.937c.63.28 1.22.62 1.75 1.04-.21.26-.43.51-.67.74-.42-.31-.88-.58-1.37-.8.11-.31.21-.64.29-.98z" fill="#ffffff" data-original="#000000" style=""/><path d="m18.01 5.957.64.77c-.13.11-.26.21-.39.3-.21-.27-.43-.52-.68-.75.15-.09.29-.2.43-.32z" fill="#ffffff" data-original="#000000" style=""/><path d="m17.58 6.277c.25.23.47.48.68.75-.53.41-1.13.75-1.76 1.03-.08-.34-.18-.66-.29-.97.49-.22.95-.49 1.37-.81z" fill="#ffffff" data-original="#000000" style=""/><path d="m17 11.997c0 .17 0 .34-.02.5h-.99c.01-.17.01-.33.01-.5s0-.34-.01-.5h.99c.02.16.02.33.02.5z" fill="#ffffff" data-original="#000000" style=""/><path d="m15.99 11.497c-.03-1.1-.19-2.15-.43-3.08.32-.1.64-.22.94-.36.29 1.04.46 2.2.48 3.44z" fill="#ffffff" data-original="#000000" style=""/><path d="m15.56 15.577c.24-.94.4-1.98.43-3.08h.99c-.02 1.24-.19 2.4-.48 3.44-.3-.14-.62-.26-.94-.36z" fill="#ffffff" data-original="#000000" style=""/><path d="m16.21 7.087c.11.31.21.63.29.97-.3.14-.62.26-.94.36-.09-.33-.19-.65-.3-.95.33-.11.65-.23.95-.38z" fill="#ffffff" data-original="#000000" style=""/><path d="m16.5 15.937c-.08.34-.18.67-.29.98-.3-.15-.62-.28-.95-.38.12-.3.21-.62.3-.96.32.1.64.22.94.36z" fill="#ffffff" data-original="#000000" style=""/><path d="m15.99 11.497c.01.16.01.33.01.5s0 .33-.01.5h-3.49v-1z" fill="#ffffff" data-original="#000000" style=""/><path d="m14.41 1.267c-.27-.06-.43-.33-.37-.6s.32-.44.59-.38c.71.16 1.39.38 2.05.66.26.11.37.4.27.66-.09.19-.27.3-.46.3-.07 0-.14-.01-.2-.04-.6-.25-1.23-.46-1.88-.6z" fill="#ffffff" data-original="#000000" style=""/><path d="m15.26 7.467c.11.3.21.62.3.95-.96.33-2 .52-3.06.56v-1c.96-.04 1.89-.21 2.76-.51z" fill="#ffffff" data-original="#000000" style=""/><path d="m15.56 15.577c-.09.34-.18.66-.3.96-.87-.3-1.8-.48-2.76-.52v-1c1.06.04 2.1.23 3.06.56z" fill="#ffffff" data-original="#000000" style=""/><path d="m12.5 19.937c1.13-.3 2.13-1.59 2.76-3.4.33.1.65.23.95.38-.36 1.02-.84 1.89-1.4 2.56v.01c-.72.27-1.5.44-2.31.49z" fill="#ffffff" data-original="#000000" style=""/><path d="m21 11.997c0 4.88-3.89 8.85-8.72 8.99.94-.09 1.8-.63 2.53-1.5v-.01c1.05-.39 1.99-.99 2.77-1.76.15.1.29.21.43.33l.64-.77c-.13-.11-.26-.22-.4-.3 1-1.24 1.63-2.79 1.73-4.48h.52v-1h-.52c-.1-1.69-.73-3.23-1.72-4.47.13-.09.26-.19.39-.3l-.64-.77c-.14.12-.28.23-.43.32-.78-.77-1.72-1.37-2.77-1.76v-.01c-.73-.88-1.6-1.41-2.55-1.5 4.84.13 8.74 4.12 8.74 8.99z" fill="#ffffff" data-original="#000000" style=""/><path d="m14.46 22.727c.27-.07.53.1.6.37.06.27-.11.54-.38.6-.7.16-1.41.26-2.13.29-.01 0-.02 0-.02 0-.27 0-.49-.21-.5-.48-.02-.27.2-.51.47-.52.66-.03 1.32-.12 1.96-.26z" fill="#ffffff" data-original="#000000" style=""/><path d="m15.26 7.467c-.63-1.82-1.63-3.11-2.76-3.4v-.05c.81.05 1.59.22 2.31.49v.01c.56.67 1.04 1.55 1.4 2.57-.3.15-.62.27-.95.38z" fill="#ffffff" data-original="#000000" style=""/><path d="m12.5 19.977v.52h-1v-.52c.16.01.33.02.5.02s.34-.01.5-.02z" fill="#ffffff" data-original="#000000" style=""/><path d="m12.5 19.937v.04c-.16.01-.33.02-.5.02.17 0 .34-.02.5-.06z" fill="#ffffff" data-original="#000000" style=""/><path d="m12.5 16.017v3.92c-.16.04-.33.06-.5.06s-.34-.02-.5-.06v-3.92c.17-.02.33-.02.5-.02s.33 0 .5.02z" fill="#ffffff" data-original="#000000" style=""/><path d="m12.5 15.017v1c-.17-.02-.33-.02-.5-.02s-.33 0-.5.02v-1c.17-.02.33-.02.5-.02s.33 0 .5.02z" fill="#ffffff" data-original="#000000" style=""/><path d="m11.5 11.497h1v1h-1z" fill="#ffffff" data-original="#000000" style=""/><path d="m12.5 8.977v2.52h-1v-2.52c.17.02.33.02.5.02s.33 0 .5-.02z" fill="#ffffff" data-original="#000000" style=""/><path d="m12.5 7.977v1c-.17.02-.33.02-.5.02s-.33 0-.5-.02v-1c.17.02.33.02.5.02s.33 0 .5-.02z" fill="#ffffff" data-original="#000000" style=""/><path d="m12.5 4.017v.05c-.1-.03-.2-.05-.3-.06.1 0 .2 0 .3.01z" fill="#ffffff" data-original="#000000" style=""/><path d="m12.5 4.067v3.91c-.17.02-.33.02-.5.02s-.33 0-.5-.02v-3.91c.1-.03.2-.05.3-.06.07-.01.13-.01.2-.01s.13 0 .2.01c.1.01.2.03.3.06z" fill="#ffffff" data-original="#000000" style=""/><path d="m11.5 12.497h1v2.52c-.17-.02-.33-.02-.5-.02s-.33 0-.5.02z" fill="#ffffff" data-original="#000000" style=""/><path d="m11.5 3.497h1v.52c-.1-.01-.2-.01-.3-.01-.07-.01-.13-.01-.2-.01s-.13 0-.2.01c-.1 0-.2 0-.3.01z" fill="#ffffff" data-original="#000000" style=""/><path d="m11.5 4.067v-.05c.1-.01.2-.01.3-.01-.1.01-.2.03-.3.06z" fill="#ffffff" data-original="#000000" style=""/><path d="m11.5 19.937c.16.04.33.06.5.06-.17 0-.34-.01-.5-.02z" fill="#ffffff" data-original="#000000" style=""/><path d="m14.81 19.487c-.73.87-1.59 1.41-2.53 1.5-.09.01-.19.01-.28.01s-.17 0-.26-.01c-.95-.09-1.82-.62-2.55-1.5.72.27 1.5.44 2.31.49v.52h1v-.52c.81-.05 1.59-.22 2.31-.49z" fill="#ffffff" data-original="#000000" style=""/><path d="m11.5 15.017v1c-.96.04-1.89.22-2.76.52-.12-.3-.21-.62-.3-.96.96-.33 2-.52 3.06-.56z" fill="#ffffff" data-original="#000000" style=""/><path d="m11.5 11.497v1h-3.49c-.01-.17-.01-.33-.01-.5s0-.34.01-.5z" fill="#ffffff" data-original="#000000" style=""/><path d="m11.5 7.977v1c-1.06-.04-2.1-.23-3.06-.56.09-.33.19-.65.3-.95.87.3 1.8.47 2.76.51z" fill="#ffffff" data-original="#000000" style=""/><path d="m9.19 4.507c.73-.88 1.6-1.41 2.55-1.5.09-.01.17-.01.26-.01s.17 0 .26.01c.95.09 1.82.62 2.55 1.5-.72-.27-1.5-.44-2.31-.49v-.52h-1v.52c-.81.05-1.59.22-2.31.49z" fill="#ffffff" data-original="#000000" style=""/><path d="m11.95.487c.01.28-.2.51-.48.53-.65.03-1.31.12-1.95.26-.04.01-.07.02-.11.02-.23 0-.43-.16-.49-.39-.06-.27.11-.54.38-.6.69-.16 1.41-.26 2.13-.29.26-.02.51.2.52.47z" fill="#ffffff" data-original="#000000" style=""/><path d="m9.19 4.507c.72-.27 1.5-.44 2.31-.49v.05c-1.13.29-2.13 1.58-2.76 3.4-.33-.11-.65-.23-.95-.38.36-1.02.84-1.9 1.4-2.57z" fill="#ffffff" data-original="#000000" style=""/><path d="m8.74 16.537c.63 1.81 1.63 3.1 2.76 3.4v.04c-.81-.05-1.59-.22-2.31-.49v-.01c-.56-.67-1.04-1.54-1.4-2.56.3-.15.62-.28.95-.38z" fill="#ffffff" data-original="#000000" style=""/><path d="m8.74 7.467c-.11.3-.21.62-.3.95-.32-.1-.64-.22-.94-.36.08-.34.18-.66.29-.97.3.15.62.27.95.38z" fill="#ffffff" data-original="#000000" style=""/><path d="m8.44 15.577c.09.34.18.66.3.96-.33.1-.65.23-.95.38-.11-.31-.21-.64-.29-.98.3-.14.62-.26.94-.36z" fill="#ffffff" data-original="#000000" style=""/><path d="m8.44 8.417c-.24.93-.4 1.98-.43 3.08h-.99c.02-1.24.19-2.4.48-3.44.3.14.62.26.94.36z" fill="#ffffff" data-original="#000000" style=""/><path d="m7.5 15.937c-.29-1.04-.46-2.2-.48-3.44h.99c.03 1.1.19 2.14.43 3.08-.32.1-.64.22-.94.36z" fill="#ffffff" data-original="#000000" style=""/><path d="m7 11.997c0-.17 0-.34.02-.5h.99c-.01.16-.01.33-.01.5s0 .33.01.5h-.99c-.02-.16-.02-.33-.02-.5z" fill="#ffffff" data-original="#000000" style=""/><path d="m7.79 7.087c-.11.31-.21.63-.29.97-.63-.28-1.23-.62-1.76-1.03.21-.27.43-.52.68-.75.42.32.88.59 1.37.81z" fill="#ffffff" data-original="#000000" style=""/><path d="m7.5 15.937c.08.34.18.67.29.98-.49.22-.95.49-1.37.8-.24-.23-.46-.48-.67-.74.53-.42 1.12-.76 1.75-1.04z" fill="#ffffff" data-original="#000000" style=""/><path d="m9.94 23.327c-.05.23-.26.39-.49.39-.03 0-.07 0-.11-.01-.69-.16-1.38-.38-2.04-.66-.26-.11-.37-.41-.27-.66.11-.25.4-.37.66-.26.6.25 1.23.46 1.87.6.27.06.44.33.38.6z" fill="#ffffff" data-original="#000000" style=""/><path d="m7 11.997c0 .17 0 .34.02.5h-3c-.01-.16-.02-.33-.02-.5s.01-.34.02-.5h3c-.02.16-.02.33-.02.5z" fill="#ffffff" data-original="#000000" style=""/><path d="m6.42 6.277c-.25.23-.47.48-.68.75-.13-.09-.26-.19-.39-.3l.64-.77c.14.12.28.23.43.32z" fill="#ffffff" data-original="#000000" style=""/><path d="m6.42 17.717c-.15.1-.29.21-.43.33l-.64-.77c.13-.11.26-.22.4-.3.21.26.43.51.67.74z" fill="#ffffff" data-original="#000000" style=""/><path d="m6.96 1.647c.13.24.05.55-.2.68-.57.31-1.13.68-1.64 1.09-.09.07-.2.11-.31.11-.15 0-.29-.06-.39-.19-.17-.21-.14-.53.08-.7.55-.45 1.16-.85 1.79-1.19.23-.13.54-.04.67.2z" fill="#ffffff" data-original="#000000" style=""/><path d="m3.5 12.497v-1h.52c-.01.16-.02.33-.02.5s.01.34.02.5z" fill="#ffffff" data-original="#000000" style=""/><path d="m4.53 21.397c-.56-.45-1.08-.95-1.56-1.49-.18-.21-.16-.52.05-.7.21-.19.52-.17.7.04.44.5.92.95 1.43 1.36.22.17.25.49.08.7-.09.13-.24.19-.39.19-.11 0-.22-.03-.31-.1z" fill="#ffffff" data-original="#000000" style=""/><path d="m5.99 18.047c.14-.12.28-.23.43-.33.78.77 1.72 1.37 2.77 1.76v.01c.73.88 1.6 1.41 2.55 1.5-4.84-.13-8.74-4.11-8.74-8.99 0-4.87 3.9-8.86 8.74-8.99-.95.09-1.82.62-2.55 1.5v.01c-1.05.39-1.99.99-2.77 1.76-.15-.09-.29-.2-.43-.32l-.64.77c.13.11.26.21.39.3-.99 1.24-1.62 2.78-1.72 4.47h-.52v1h.52c.1 1.69.73 3.24 1.73 4.48-.14.08-.27.19-.4.3z" fill="#ffffff" data-original="#000000" style=""/><path d="m3.08 5.557c-.38.53-.72 1.1-1 1.69-.09.18-.27.29-.46.29-.07 0-.14-.02-.21-.05-.25-.12-.36-.42-.24-.67.32-.65.69-1.27 1.11-1.85.16-.22.47-.27.69-.11.23.16.28.48.11.7z" fill="#ffffff" data-original="#000000" style=""/><path d="m1.19 17.227c-.31-.64-.56-1.32-.75-2.01-.08-.27.08-.54.34-.62.27-.07.54.08.62.35.17.63.41 1.25.69 1.84.12.25.02.55-.23.67-.07.04-.14.05-.22.05-.18 0-.36-.1-.45-.28z" fill="#ffffff" data-original="#000000" style=""/><path d="m0 11.937c0-.65.06-1.36.19-2.05.05-.28.3-.46.58-.41.27.05.45.31.4.58-.11.64-.17 1.29-.17 1.94 0 .28-.23.51-.5.51-.28 0-.5-.21-.5-.48 0-.03 0-.07 0-.09z" fill="#ffffff" data-original="#000000" style=""/></g></g></svg>
