<svg xmlns="http://www.w3.org/2000/svg" width="26.578" height="26.988" viewBox="0 0 26.578 26.988"><defs><style>.a{fill:#fff;stroke:#378daf;stroke-width:0.5px;}</style></defs><g transform="translate(-3.715 0.25)"><g transform="translate(7.762 10.07)"><g transform="translate(0)"><path class="a" d="M79.957,201.463a7.707,7.707,0,0,1-.775-5.837.781.781,0,1,0-1.51-.4,9.269,9.269,0,0,0,.933,7.025.781.781,0,0,0,1.351-.785Z" transform="translate(-77.361 -194.643)"/></g></g><g transform="translate(3.965)"><g transform="translate(0)"><path class="a" d="M25.161,2.867A13.04,13.04,0,0,0,5.927,19.92a.781.781,0,1,0,1.326-.826A11.479,11.479,0,0,1,17,1.562a11.35,11.35,0,0,1,7.179,2.522.781.781,0,1,0,.978-1.218Z" transform="translate(-3.965)"/></g></g><g transform="translate(8.084 7.729)"><path class="a" d="M95.6,159.006a5.31,5.31,0,1,0-6.209,0,8.935,8.935,0,0,0-5.815,8.362.781.781,0,0,0,.781.781h16.278a.781.781,0,0,0,.781-.781A8.935,8.935,0,0,0,95.6,159.006ZM88.751,154.7a3.748,3.748,0,1,1,3.748,3.748A3.752,3.752,0,0,1,88.751,154.7Zm-3.569,11.887a7.358,7.358,0,0,1,14.633,0Z" transform="translate(-83.579 -149.39)"/></g><g transform="translate(9.64 3.797)"><path class="a" d="M121.021,73.395a9.207,9.207,0,0,0-7.19,3.435.781.781,0,1,0,1.215.982,7.68,7.68,0,0,1,12.621,8.675.781.781,0,1,0,1.351.785,9.244,9.244,0,0,0-8-13.877Z" transform="translate(-113.657 -73.395)"/></g><g transform="translate(26.011 4.878)"><path class="a" d="M431.5,94.6a.781.781,0,0,0-1.247.942,11.483,11.483,0,0,1,.586,12.964.781.781,0,1,0,1.326.826A13.045,13.045,0,0,0,431.5,94.6Z" transform="translate(-430.1 -94.291)"/></g></g></svg>