<svg xmlns="http://www.w3.org/2000/svg" width="28.652" height="25.807" viewBox="0 0 28.652 25.807"><defs><style>.a,.b{fill:#fff;stroke:#fff;stroke-width:0.2px;}.b{fill-rule:evenodd;}</style></defs><g transform="translate(0.1 0.1)"><path class="a" d="M11.285,4.423a.733.733,0,0,0,.753-.711A.733.733,0,0,0,11.285,3H3.753A.733.733,0,0,0,3,3.711v7.113a.733.733,0,0,0,.753.711.733.733,0,0,0,.753-.711v-6.4Z" transform="translate(-1.578 -3)"/><path class="a" d="M4.506,15.711A.733.733,0,0,0,3.753,15,.733.733,0,0,0,3,15.711v7.113a.733.733,0,0,0,.753.711h7.532a.712.712,0,1,0,0-1.423H4.506Z" transform="translate(-1.578 2.072)"/><path class="a" d="M15.4,22.113a.712.712,0,1,0,0,1.423h7.531a.733.733,0,0,0,.753-.711V15.711a.754.754,0,0,0-1.506,0v6.4Z" transform="translate(3.345 2.072)"/><path class="a" d="M22.179,10.824a.754.754,0,0,0,1.506,0V3.711A.733.733,0,0,0,22.932,3H15.4a.733.733,0,0,0-.753.711.733.733,0,0,0,.753.711h6.778Z" transform="translate(3.345 -3)"/><path class="b" d="M30.452,12.211a.711.711,0,0,1-.711.711H2.711a.711.711,0,1,1,0-1.423h27.03A.711.711,0,0,1,30.452,12.211Z" transform="translate(-2 0.593)"/></g></svg>