<?xml version="1.0"?>
<svg xmlns="http://www.w3.org/2000/svg" xmlns:xlink="http://www.w3.org/1999/xlink" xmlns:svgjs="http://svgjs.com/svgjs" version="1.1" width="512" height="512" x="0" y="0" viewBox="0 0 512 512" style="enable-background:new 0 0 512 512" xml:space="preserve" class=""><g><linearGradient xmlns="http://www.w3.org/2000/svg" id="a" gradientUnits="userSpaceOnUse" x1="256" x2="256" y1="0" y2="512"><stop stop-opacity="1" stop-color="#378daf" offset="0"/><stop stop-opacity="1" stop-color="#378daf" offset="1"/></linearGradient><path xmlns="http://www.w3.org/2000/svg" d="m437.019531 74.980469c-48.351562-48.351563-112.640625-74.980469-181.019531-74.980469s-132.667969 26.628906-181.019531 74.980469c-48.351563 48.351562-74.980469 112.640625-74.980469 181.019531s26.628906 132.667969 74.980469 181.019531c48.351562 48.351563 112.640625 74.980469 181.019531 74.980469s132.667969-26.628906 181.019531-74.980469c48.351563-48.351562 74.980469-112.640625 74.980469-181.019531s-26.628906-132.667969-74.980469-181.019531zm-181.019531 397.019531c-119.101562 0-216-96.898438-216-216s96.898438-216 216-216 216 96.898438 216 216-96.898438 216-216 216zm-30.015625-302.269531c0-15.839844 13.457031-28.730469 30-28.730469v-40c-38.597656 0-70 30.832031-70 68.730469v27.269531h-42.984375v184h226v-184h-143.015625zm103.015625 171.269531h-146v-104h146zm-73.015625-200v-40c27.707031 0 52.847656 16.078125 64.046875 40.96875 3.949219 8.773438 5.953125 18.113281 5.953125 27.765625h-40c0-3.953125-.820313-7.769531-2.429687-11.351563-4.75-10.558593-15.574219-17.382812-27.570313-17.382812zm-19.984375 148c0-11.046875 8.953125-20 20-20s20 8.953125 20 20-8.953125 20-20 20-20-8.953125-20-20zm0 0" fill="url(#a)" data-original="url(#a)" style="" class=""/></g></svg>
